<?xml version="1.0" encoding="UTF-8"?>
<svg version="1.1" xmlns="http://www.w3.org/2000/svg" width="272" height="234">
<path d="M0 0 C0.97902283 -0.00426498 1.95804565 -0.00852997 2.96673584 -0.01292419 C4.59251808 -0.01224442 4.59251808 -0.01224442 6.25114441 -0.0115509 C7.38649628 -0.01490952 8.52184814 -0.01826813 9.69160461 -0.02172852 C13.47993544 -0.03129263 17.26822214 -0.03318597 21.05656433 -0.03425598 C23.70090757 -0.03747059 26.34525064 -0.04083482 28.98959351 -0.04434204 C34.56261988 -0.05075627 40.13563438 -0.05222351 45.70866394 -0.05158997 C52.07642927 -0.05099659 58.44410782 -0.06139241 64.81185132 -0.07733363 C70.31715078 -0.09060803 75.82242274 -0.09576534 81.32773799 -0.09513456 C84.59717667 -0.09488419 87.86652411 -0.09844587 91.13595009 -0.10831261 C104.6052905 -0.14507574 118.01112684 0.07140103 131.45378113 0.97233582 C132.56374104 1.04310491 133.67370096 1.113874 134.81729603 1.18678761 C162.73634254 3.28003367 189.68121581 12.74359058 208.31828308 34.39933777 C226.79594013 57.83114925 230.70451029 87.72085437 230.66203308 116.69621277 C230.66142883 117.45449371 230.66082458 118.21277466 230.66020203 118.99403381 C230.63672474 129.82693995 230.48040368 140.45473121 228.47453308 151.13371277 C228.34562683 151.82094421 228.21672058 152.50817566 228.08390808 153.2162323 C223.24789766 178.10713314 212.35323724 199.90543461 191.47453308 215.13371277 C164.19241069 233.35427308 132.24878475 234.46253402 100.49040866 234.33650064 C96.75221931 234.32384056 93.01402535 234.32281093 89.27581787 234.32044983 C82.22503458 234.31427929 75.17431467 234.29792965 68.12355906 234.27775085 C60.08463268 234.25525247 52.04570297 234.24436368 44.00675285 234.23435998 C27.495975 234.21355849 10.98526469 234.17805875 -5.52546692 234.13371277 C-6.18546692 228.85371277 -6.84546692 223.57371277 -7.52546692 218.13371277 C-9.48484192 219.37121277 -11.44421692 220.60871277 -13.46296692 221.88371277 C-20.4317667 226.2060777 -27.2070916 230.28054607 -35.52546692 231.13371277 C-31.62235795 226.20346986 -27.53011027 222.35834464 -22.57234192 218.50480652 C-18.80817889 215.57551555 -15.10317321 212.57756612 -11.40046692 209.57121277 C-10.4155426 208.77626404 -10.4155426 208.77626404 -9.41072083 207.96525574 C-6.0637121 205.25171333 -2.80126734 202.48738203 0.39250183 199.59465027 C4.5223264 195.96399667 8.93309934 193.10873492 13.66203308 190.32121277 C14.5126532 189.81493347 15.36327332 189.30865417 16.2396698 188.78703308 C41.3223833 174.13371277 41.3223833 174.13371277 47.47453308 174.13371277 C47.74265808 173.34996277 48.01078308 172.56621277 48.28703308 171.75871277 C49.47453308 169.13371277 49.47453308 169.13371277 52.47453308 167.13371277 C52.80453308 167.46371277 53.13453308 167.79371277 53.47453308 168.13371277 C55.47411672 168.1745206 57.47498562 168.17625633 59.47453308 168.13371277 C59.82515808 166.87558777 60.17578308 165.61746277 60.53703308 164.32121277 C61.82888087 160.9338331 62.19606667 160.29615151 65.47453308 158.38371277 C66.79892293 157.93943762 68.13395121 157.52643295 69.47453308 157.13371277 C77.19196837 154.79881647 77.19196837 154.79881647 83.78703308 150.38371277 C86.47453308 148.13371277 86.47453308 148.13371277 89.66203308 147.69621277 C92.47453308 148.13371277 92.47453308 148.13371277 95.47453308 150.13371277 C98.67373669 149.80046239 101.42311786 149.15085117 104.47453308 148.13371277 C105.68025904 149.513833 106.86359059 150.91354105 108.03703308 152.32121277 C108.69832214 153.09851746 109.35961121 153.87582214 110.04093933 154.67668152 C111.47453308 157.13371277 111.47453308 157.13371277 111.25187683 159.74699402 C110.66632985 161.54482921 110.07245253 163.33995443 109.47453308 165.13371277 C109.06211074 169.50538954 109.22303889 171.67264008 111.34953308 175.57121277 C112.05078308 176.41683777 112.75203308 177.26246277 113.47453308 178.13371277 C114.13453308 178.13371277 114.79453308 178.13371277 115.47453308 178.13371277 C115.16257996 177.66062683 114.85062683 177.18754089 114.52922058 176.70011902 C112.1321608 172.6282923 111.08937933 170.07205325 112.22453308 165.38371277 C112.44625183 164.66699402 112.66797058 163.95027527 112.89640808 163.21183777 C113.65321138 160.8509438 113.65321138 160.8509438 113.47453308 157.13371277 C112.81453308 156.14371277 112.15453308 155.15371277 111.47453308 154.13371277 C111.84953308 151.94621277 111.84953308 151.94621277 112.47453308 150.13371277 C116.67171965 151.53277496 118.08041872 153.89027434 120.44718933 157.52433777 C122.01350586 161.50266265 120.80577218 164.00189994 119.29484558 167.84465027 C117.56614275 172.66855435 119.64857219 176.64771008 121.47453308 181.13371277 C131.92721362 175.97305362 141.35328568 169.62390772 150.88078308 162.93791199 C153.59297238 161.051327 156.32778599 159.20155482 159.06828308 157.35636902 C160.89137484 156.11574085 162.71429604 154.87486202 164.53703308 153.63371277 C165.40014099 153.05871033 166.2632489 152.48370789 167.1525116 151.89128113 C167.95100525 151.34222107 168.7494989 150.79316101 169.57218933 150.22746277 C170.63191956 149.51106628 170.63191956 149.51106628 171.71305847 148.78019714 C174.83790291 145.85934463 175.41548723 142.79502635 175.78703308 138.63371277 C175.44531011 134.80641547 174.96738374 133.04203854 172.47453308 130.13371277 C168.97320786 128.50518941 166.41500184 128.13276783 162.53703308 128.07121277 C159.50652594 127.79093465 158.60812687 127.26705401 156.40812683 125.07121277 C154.66083816 122.81209207 153.02470047 120.53162794 151.47453308 118.13371277 C152.62626663 115.6657123 153.52236874 114.08587711 155.47453308 112.13371277 C156.34231291 106.41310596 154.08126542 103.1325598 151.03703308 98.57121277 C150.59053406 97.88027527 150.14403503 97.18933777 149.68400574 96.47746277 C145.425142 89.93229326 140.99027651 83.50374698 136.47453308 77.13371277 C135.85062683 77.32578308 135.22672058 77.51785339 134.58390808 77.71574402 C133.88781433 77.85367371 133.19172058 77.99160339 132.47453308 78.13371277 C130.72453308 76.82121277 130.72453308 76.82121277 129.47453308 75.13371277 C129.47453308 74.47371277 129.47453308 73.81371277 129.47453308 73.13371277 C126.50453308 74.61871277 126.50453308 74.61871277 123.47453308 76.13371277 C120.88229886 72.93451639 118.46097021 69.74739565 116.47453308 66.13371277 C117.03703308 63.00871277 117.03703308 63.00871277 118.47453308 60.13371277 C119.00555278 56.20572882 118.75904189 52.85247186 117.28703308 49.13371277 C115.65984327 46.90760431 115.65984327 46.90760431 113.16984558 46.81730652 C109.83108805 47.20924762 108.27982254 48.25357542 105.53703308 50.19621277 C104.49804871 50.91937683 103.45906433 51.64254089 102.38859558 52.38761902 C101.78692566 52.81188171 101.18525574 53.23614441 100.56535339 53.67326355 C98.12116801 55.38054017 95.65487851 57.05297192 93.18547058 58.72355652 C80.07728584 67.58236914 80.07728584 67.58236914 67.30265808 76.91105652 C65.47453308 78.13371277 65.47453308 78.13371277 63.47453308 78.13371277 C61.61919692 85.39626032 61.61919692 85.39626032 62.47453308 92.69621277 C64.27917251 95.36506232 64.27917251 95.36506232 67.28703308 95.94621277 C72.05663225 97.72312226 74.38531408 101.57319969 76.47453308 106.13371277 C75.97953308 107.61871277 75.97953308 107.61871277 75.47453308 109.13371277 C74.81453308 109.13371277 74.15453308 109.13371277 73.47453308 109.13371277 C72.26371457 112.23912202 72.26371457 112.23912202 72.47453308 116.13371277 C72.47453308 120.13371277 72.47453308 120.13371277 71.47453308 123.13371277 C73.47974546 121.46981314 74.39046533 120.57991853 74.88078308 117.97746277 C74.91172058 117.20402527 74.94265808 116.43058777 74.97453308 115.63371277 C75.14010616 111.49438586 75.14010616 111.49438586 77.01750183 109.46965027 C77.49832214 109.02879089 77.97914246 108.58793152 78.47453308 108.13371277 C78.15736988 104.96208077 76.6952412 102.06341226 75.47453308 99.13371277 C79.47453308 99.13371277 79.47453308 99.13371277 81.21281433 100.74308777 C81.73230652 101.44949402 82.25179871 102.15590027 82.78703308 102.88371277 C83.31941589 103.57980652 83.85179871 104.27590027 84.40031433 104.99308777 C85.47453308 107.13371277 85.47453308 107.13371277 85.24015808 109.28605652 C84.47453308 111.13371277 84.47453308 111.13371277 82.91203308 112.94621277 C81.15989992 115.17624421 81.15989992 115.17624421 81.47453308 118.57121277 C81.47453308 122.67700246 81.100138 124.01580693 78.47453308 127.13371277 C76.62823757 128.20792107 74.77992673 129.27886875 72.91984558 130.32902527 C68.99166618 133.22809697 65.97461409 137.0363558 62.95133972 140.85246277 C61.50187683 142.56340027 61.50187683 142.56340027 58.47453308 145.13371277 C54.72843933 144.95402527 54.72843933 144.95402527 51.47453308 144.13371277 C50.81453308 144.46371277 50.15453308 144.79371277 49.47453308 145.13371277 C49.06724081 147.45527874 48.73014631 149.79059147 48.47453308 152.13371277 C47.25765808 152.36058777 46.04078308 152.58746277 44.78703308 152.82121277 C39.9140846 154.43542432 36.92671017 157.35628598 33.47453308 161.00871277 C16.57405091 178.76794913 -4.93640042 190.10156296 -26.15046692 201.88371277 C-26.8016449 202.24631195 -27.45282288 202.60891113 -28.12373352 202.98249817 C-29.97631747 204.01181237 -31.83223303 205.0348064 -33.68952942 206.05558777 C-34.76670227 206.64952332 -35.84387512 207.24345886 -36.95368958 207.85539246 C-39.52546692 209.13371277 -39.52546692 209.13371277 -41.52546692 209.13371277 C-41.20621776 206.19562289 -40.97497722 204.57802041 -38.83796692 202.46574402 C-38.07484192 201.96429871 -37.31171692 201.46285339 -36.52546692 200.94621277 C-35.17968567 200.06062683 -35.17968567 200.06062683 -33.80671692 199.15715027 C-27.76559064 195.43178907 -21.64766203 191.84378789 -15.50642395 188.2865448 C-11.48618108 185.94693587 -7.50618478 183.53974862 -3.52546692 181.13371277 C-4.18546692 181.13371277 -4.84546692 181.13371277 -5.52546692 181.13371277 C-5.54879329 157.68190031 -5.5664448 134.23008957 -5.57727909 110.77826786 C-5.58244261 99.889991 -5.58948636 89.00172134 -5.60090637 78.1134491 C-5.61085152 68.62687708 -5.61731994 59.14031028 -5.61955541 49.65373319 C-5.62086281 44.62738522 -5.62395048 39.60105215 -5.63119698 34.57470894 C-5.63795452 29.8494938 -5.64008443 25.12429979 -5.6385746 20.39908028 C-5.63885105 18.65954982 -5.64085774 16.9200187 -5.64467239 15.1804924 C-5.64960551 12.81612292 -5.64846664 10.45183452 -5.64572144 8.08746338 C-5.64863428 7.39000553 -5.65154712 6.69254768 -5.65454823 5.97395474 C-5.63727265 0.51634038 -5.40234224 0.01058878 0 0 Z M99.47453308 45.13371277 C99.14453308 45.79371277 98.81453308 46.45371277 98.47453308 47.13371277 C99.46453308 46.80371277 100.45453308 46.47371277 101.47453308 46.13371277 C100.81453308 45.80371277 100.15453308 45.47371277 99.47453308 45.13371277 Z M93.47453308 49.13371277 C90.17453308 51.44371277 86.87453308 53.75371277 83.47453308 56.13371277 C87.10648805 56.13371277 88.22167219 55.17918122 91.16203308 53.13371277 C92.37439636 52.29840027 92.37439636 52.29840027 93.61125183 51.44621277 C94.22613464 51.01308777 94.84101746 50.57996277 95.47453308 50.13371277 C94.81453308 49.80371277 94.15453308 49.47371277 93.47453308 49.13371277 Z M81.47453308 57.13371277 C81.14453308 57.79371277 80.81453308 58.45371277 80.47453308 59.13371277 C81.46453308 58.80371277 82.45453308 58.47371277 83.47453308 58.13371277 C82.81453308 57.80371277 82.15453308 57.47371277 81.47453308 57.13371277 Z M78.47453308 59.13371277 C78.14453308 59.79371277 77.81453308 60.45371277 77.47453308 61.13371277 C78.46453308 60.80371277 79.45453308 60.47371277 80.47453308 60.13371277 C79.81453308 59.80371277 79.15453308 59.47371277 78.47453308 59.13371277 Z M75.47453308 61.13371277 C75.14453308 61.79371277 74.81453308 62.45371277 74.47453308 63.13371277 C75.46453308 62.80371277 76.45453308 62.47371277 77.47453308 62.13371277 C76.81453308 61.80371277 76.15453308 61.47371277 75.47453308 61.13371277 Z M65.66203308 67.88371277 C65.04521667 68.32715027 64.42840027 68.77058777 63.79289246 69.22746277 C55.84247528 74.31105302 55.84247528 74.31105302 51.47453308 82.13371277 C51.32263952 87.03898127 51.74682029 90.18965293 54.78703308 94.13371277 C57.18124361 95.91545084 58.55291309 96.80908833 61.47453308 97.13371277 C60.85578308 96.45308777 60.23703308 95.77246277 59.59953308 95.07121277 C56.76592992 91.1541731 55.30588679 87.92404234 55.60343933 83.00090027 C57.14577145 76.03004487 61.88401884 73.04101428 67.56437683 69.17668152 C70.18093039 67.3398258 72.30085324 65.46452609 74.47453308 63.13371277 C70.98205195 63.13371277 68.40005862 65.88425207 65.66203308 67.88371277 Z M65.47453308 126.13371277 C59.82083284 129.75208092 56.23152768 133.58767312 52.47453308 139.13371277 C56.62772416 139.58994445 56.62772416 139.58994445 59.27140808 136.50871277 C60.26701125 135.39363722 61.25105722 134.26815708 62.22453308 133.13371277 C62.73113464 132.56136902 63.23773621 131.98902527 63.75968933 131.39933777 C65.00794845 129.98621423 66.24258244 128.56107627 67.47453308 127.13371277 C66.81453308 126.80371277 66.15453308 126.47371277 65.47453308 126.13371277 Z M41.47453308 141.13371277 C39.18724574 142.97255158 39.18724574 142.97255158 39.34953308 145.75871277 C39.39078308 146.54246277 39.43203308 147.32621277 39.47453308 148.13371277 C40.46453308 148.13371277 41.45453308 148.13371277 42.47453308 148.13371277 C43.13453308 145.82371277 43.79453308 143.51371277 44.47453308 141.13371277 C43.48453308 141.13371277 42.49453308 141.13371277 41.47453308 141.13371277 Z M27.59953308 154.32121277 C26.88797058 154.96703308 26.17640808 155.61285339 25.44328308 156.27824402 C23.97243237 157.66446244 22.52869426 159.07955159 21.09953308 160.50871277 C17.81253054 163.79571531 14.35027102 166.86206286 10.87687683 169.95011902 C8.67427567 171.95215812 6.5595026 174.01022187 4.47453308 176.13371277 C15.77113076 172.2600141 27.29338362 160.49047243 34.47453308 151.13371277 C30.7963414 151.13371277 30.25070653 151.90214595 27.59953308 154.32121277 Z M2.47453308 176.13371277 C2.14453308 176.79371277 1.81453308 177.45371277 1.47453308 178.13371277 C2.46453308 177.80371277 3.45453308 177.47371277 4.47453308 177.13371277 C3.81453308 176.80371277 3.15453308 176.47371277 2.47453308 176.13371277 Z " fill="#DCA66F" transform="translate(41.52546691894531,-0.1337127685546875)"/>
<path d="M0 0 C3.93544623 1.31181541 5.74938163 3.95958727 8.14453125 7.1484375 C9 9 9 9 8.734375 11.11328125 C8 13 8 13 6.4375 14.8125 C4.68536684 17.04253144 4.68536684 17.04253144 5 20.4375 C5 24.54328969 4.62560492 25.88209416 2 29 C0.15370449 30.0742083 -1.69460635 31.14515599 -3.5546875 32.1953125 C-7.4828669 35.0943842 -10.499919 38.90264303 -13.52319336 42.71875 C-14.97265625 44.4296875 -14.97265625 44.4296875 -18 47 C-21.74609375 46.8203125 -21.74609375 46.8203125 -25 46 C-25.99 46.495 -25.99 46.495 -27 47 C-27.40729228 49.32156597 -27.74438677 51.6568787 -28 54 C-29.216875 54.226875 -30.43375 54.45375 -31.6875 54.6875 C-36.56044848 56.30171155 -39.54782291 59.22257321 -43 62.875 C-59.90048217 80.63423636 -81.4109335 91.96785019 -102.625 103.75 C-103.60176697 104.29389877 -103.60176697 104.29389877 -104.5982666 104.8487854 C-106.45085055 105.8780996 -108.30676611 106.90109363 -110.1640625 107.921875 C-111.24123535 108.51581055 -112.3184082 109.10974609 -113.42822266 109.72167969 C-116 111 -116 111 -118 111 C-117.68075084 108.06191012 -117.44951031 106.44430764 -115.3125 104.33203125 C-114.549375 103.83058594 -113.78625 103.32914062 -113 102.8125 C-112.08992188 102.214375 -111.17984375 101.61625 -110.2421875 101 C-102.73990879 96.37208831 -95.10867261 91.96501406 -87.48535156 87.54052734 C-70.96654187 77.91971661 -56.25968334 67.41883081 -42.7890625 53.7578125 C-39.95995691 50.97812361 -37.97052293 50 -34 50 C-34 49.071875 -34 48.14375 -34 47.1875 C-33 44 -33 44 -31.328125 42.96875 C-28.39307223 41.8653467 -25.64353127 41.07094046 -22.51953125 40.7265625 C-19.05755438 39.72822498 -17.7389761 37.92125335 -15.4375 35.1875 C-7.95644947 26.40990691 -7.95644947 26.40990691 -4.8125 25.0625 C-2.76404659 24.13657688 -2.76404659 24.13657688 -2.3125 21.75 C-2.209375 20.8425 -2.10625 19.935 -2 19 C-1.4807853 14.67321084 -1.01742842 13.01742842 2 10 C1.6828368 6.828368 0.22070812 3.92969949 -1 1 C-0.67 0.67 -0.34 0.34 0 0 Z " fill="#E5E5E4" transform="translate(118,98)"/>
<path d="M0 0 C0.495 1.485 0.495 1.485 1 3 C0.07960937 3.34160156 -0.84078125 3.68320312 -1.7890625 4.03515625 C-7.40927621 6.45046636 -12.32973041 10.01798603 -17.375 13.4375 C-18.42905029 14.14527588 -19.48310059 14.85305176 -20.5690918 15.58227539 C-27.761157 20.42994464 -34.88568123 25.36828077 -41.90966797 30.45678711 C-44.59307514 32.38738168 -46.84298292 33.94766097 -50 35 C-51.94107981 42.31398339 -51.94107981 42.31398339 -50.6875 49.5625 C-49.8521875 50.7690625 -49.8521875 50.7690625 -49 52 C-48.67 52.66 -48.34 53.32 -48 54 C-50.9934377 53.66739581 -52.7494744 53.18610473 -55.1875 51.375 C-57.97093997 47.72773384 -59.22728006 44.47779833 -58.80078125 39.828125 C-55.99507621 28.28692697 -41.26686385 21.63006917 -31.9375 15.375 C-30.71002506 14.5472625 -29.48281033 13.719139 -28.25585938 12.890625 C-25.90367897 11.30273269 -23.54688924 9.72205509 -21.18676758 8.14599609 C-19.21137058 6.81574714 -17.24765754 5.4677407 -15.3034668 4.09228516 C-14.52527588 3.54620605 -13.74708496 3.00012695 -12.9453125 2.4375 C-12.29449707 1.96957031 -11.64368164 1.50164063 -10.97314453 1.01953125 C-7.34194729 -0.85672211 -3.99013374 -0.38001274 0 0 Z " fill="#E4E4E4" transform="translate(155,43)"/>
<path d="M0 0 C4.19718657 1.39906219 5.60588564 3.75656157 7.97265625 7.390625 C9.53897278 11.36894988 8.3312391 13.86818717 6.8203125 17.7109375 C5.12078654 22.45342422 7.06134644 26.60571859 9 31 C5.99851864 30.67841271 5.01794208 30.01846979 2.875 27.8125 C0.77212697 24.65819045 -0.37311793 22.7612924 -1 19 C-0.29732881 16.12239418 0.56323127 13.37296838 1.56640625 10.5859375 C2.31068804 7.93557288 2.31068804 7.93557288 0.5703125 5.8046875 C0.05210937 5.20914063 -0.46609375 4.61359375 -1 4 C-0.6875 1.75 -0.6875 1.75 0 0 Z " fill="#E4E4E4" transform="translate(154,150)"/>
<path d="M0 0 C1.65 0 3.3 0 5 0 C5.33 1.32 5.66 2.64 6 4 C5.01 4.33 4.02 4.66 3 5 C1.5 3.625 1.5 3.625 0 2 C0 1.34 0 0.68 0 0 Z " fill="#E4E2E0" transform="translate(171,73)"/>
<path d="M0 0 C-0.66 1.65 -1.32 3.3 -2 5 C-4.31 4.34 -6.62 3.68 -9 3 C-9 2.67 -9 2.34 -9 2 C-2.25 0 -2.25 0 0 0 Z " fill="#E2DAD3" transform="translate(95,139)"/>
</svg>
