<?xml version="1.0" encoding="UTF-8"?>
<svg version="1.1" xmlns="http://www.w3.org/2000/svg" width="272" height="234">
<path d="M0 0 C16.14423657 -0.04706395 32.28845033 -0.08215511 48.43273926 -0.10362434 C55.9315828 -0.11386512 63.43038333 -0.12778462 70.92919922 -0.15087891 C77.47769676 -0.17103658 84.0261631 -0.18376845 90.57469082 -0.18817699 C94.03069876 -0.19074723 97.48661756 -0.19663063 100.94259644 -0.21146011 C144.66392176 -0.3779027 144.66392176 -0.3779027 164.25 4.8125 C165.2922876 5.07675781 166.3345752 5.34101562 167.40844727 5.61328125 C190.59681198 11.66922394 209.71225201 24.34668219 222.05078125 45.2421875 C233.42125523 66.37255461 236.18775057 90.58220303 236.18530273 114.20141602 C236.18747306 116.53355629 236.20564156 118.86520956 236.22460938 121.19726562 C236.33816696 151.16934729 230.55516004 183.6218823 209 206 C185.66845611 227.90384877 154.33474996 234.20317257 123.28857422 234.11352539 C121.93736269 234.11324271 120.58615101 234.11340283 119.23493958 234.1139679 C115.59720428 234.11425271 111.95950252 234.10840729 108.32177496 234.10139394 C104.50879941 234.09510758 100.69582295 234.09455244 96.88284302 234.09336853 C89.67601936 234.09027071 82.46921101 234.08207834 75.26239407 234.07201904 C67.05192147 234.06080962 58.84144812 234.05533532 50.63096976 234.05032361 C33.75397076 234.03989431 16.87698759 234.02212168 0 234 C-0.66 228.72 -1.32 223.44 -2 218 C-4.1346875 219.5778125 -4.1346875 219.5778125 -6.3125 221.1875 C-13.56017175 226.24855124 -21.0579585 230.4038639 -30 231 C-26.79028839 225.039107 -21.98232158 221.49018184 -16.71582031 217.35839844 C-14.17670607 215.34820611 -11.67712161 213.29057414 -9.17260742 211.23754883 C-5.7953615 208.47478691 -2.39807065 205.73707375 1 203 C1.57540527 202.53384277 2.15081055 202.06768555 2.74365234 201.58740234 C15.62418477 191.1949371 29.19037989 183.58159124 44.31982422 176.89282227 C45.27131348 176.45897217 46.22280273 176.02512207 47.203125 175.578125 C48.05551758 175.20075195 48.90791016 174.82337891 49.78613281 174.43457031 C52.48491844 172.68577627 53.40974097 170.75189792 55 168 C58 167 58 167 61.0625 167.5625 C62.031875 167.706875 63.00125 167.85125 64 168 C66.32510333 166.04770793 66.32510333 166.04770793 66.671875 162.54296875 C68 159 68 159 71.265625 157.36328125 C72.58566097 156.98367171 73.91466003 156.63416059 75.25 156.3125 C81.4476262 154.67481685 86.39014085 152.60985915 91 148 C97.93838863 147.5450237 97.93838863 147.5450237 101.625 149.125 C104.94238045 150.3471928 106.82762695 149.32797011 110 148 C112.64752004 150.57784846 114.94432065 152.91648098 117 156 C116.70017573 159.05820753 116.21186948 162.02010367 115.5625 165.0234375 C114.8144383 169.09102302 114.89297812 170.80022583 116.875 174.5 C117.57625 175.325 118.2775 176.15 119 177 C119.33 177 119.66 177 120 177 C119.443125 175.906875 118.88625 174.81375 118.3125 173.6875 C116.38848746 168.75886515 117.72099367 165.31554708 119.53125 160.515625 C120.31259793 157.92946911 120.31259793 157.92946911 118.57421875 155.8125 C118.05472656 155.214375 117.53523437 154.61625 117 154 C117.3125 151.75 117.3125 151.75 118 150 C122.19718657 151.39906219 123.60588564 153.75656157 125.97265625 157.390625 C127.53832523 161.36730514 126.3313306 163.86478957 124.82421875 167.70703125 C123.70466213 170.82162715 123.96243263 172.88729788 125 176 C125.97242466 177.35357603 126.96906732 178.69043687 128 180 C137.74921258 175.20207291 146.49364545 169.02449242 155.37841797 162.81591797 C158.09138479 160.93669957 160.82612414 159.09302497 163.56640625 157.25390625 C165.37779149 156.02371328 167.18899436 154.79325172 169 153.5625 C169.85456787 152.99595703 170.70913574 152.42941406 171.58959961 151.84570312 C176.10388745 148.74747418 179.21574821 146.40523337 181 141 C180.87607423 137.40615254 180.45454757 134.88517158 178.8125 131.6875 C175.99258216 129.06205925 172.89980944 128.05688052 169.04296875 127.94140625 C165.66117516 127.83148179 163.71635589 127.63444409 161.12109375 125.3359375 C158.65804003 122.28426538 157.02601953 120.17087872 156.9375 116.1875 C158 114 158 114 159.625 112.5625 C160.07875 112.046875 160.5325 111.53125 161 111 C160.64043616 106.55278355 159.48625685 103.68369313 156.98046875 100.03125 C156.37009766 99.13019531 155.75972656 98.22914062 155.13085938 97.30078125 C154.48955078 96.37652344 153.84824219 95.45226562 153.1875 94.5 C152.55779297 93.57574219 151.92808594 92.65148437 151.27929688 91.69921875 C150.06431187 89.91690077 148.84360967 88.13846293 147.61645508 86.36450195 C146.27013051 84.3951388 144.98334448 82.40383252 143.7109375 80.38671875 C142.21509105 77.76744217 142.21509105 77.76744217 139.4375 77.3125 C138.633125 77.209375 137.82875 77.10625 137 77 C135.1875 75.4375 135.1875 75.4375 134 74 C131.525 74.99 131.525 74.99 129 76 C126.04444938 73.24828046 123.67431291 70.70111274 122 67 C122.23832733 63.96132655 122.6389501 61.72209981 124 59 C124.0149921 56.88446939 124.0149921 56.88446939 123.75 54.5625 C123.68296875 53.78003906 123.6159375 52.99757812 123.546875 52.19140625 C122.88449825 49.53716797 122.29657302 48.49886956 120 47 C115.93470745 47.41606406 113.25249219 48.86479365 109.875 51.09765625 C108.91335937 51.72945801 107.95171875 52.36125977 106.9609375 53.01220703 C105.98382813 53.66817871 105.00671875 54.32415039 104 55 C103.08476562 55.61085449 102.16953125 56.22170898 101.2265625 56.85107422 C98.47528265 58.70020625 95.735893 60.56568757 93 62.4375 C92.04319336 63.08984619 91.08638672 63.74219238 90.10058594 64.41430664 C84.24908281 68.41715346 78.47414894 72.48818686 72.828125 76.77734375 C71 78 71 78 69 78 C67.14466384 85.26254755 67.14466384 85.26254755 68 92.5625 C69.80961604 95.22340202 69.80961604 95.22340202 72.8125 95.875 C77.39215394 97.49134845 79.74488198 100.76165762 82 105 C82 106.32 82 107.64 82 109 C81.34 109.598125 80.68 110.19625 80 110.8125 C77.62476512 112.94549783 77.62476512 112.94549783 77.8125 116.5625 C77.9053125 118.2640625 77.9053125 118.2640625 78 120 C77.505 121.485 77.505 121.485 77 123 C79.00521238 121.33610037 79.91593225 120.44620576 80.40625 117.84375 C80.4371875 117.0703125 80.468125 116.296875 80.5 115.5 C80.66557308 111.36067309 80.66557308 111.36067309 82.54296875 109.3359375 C83.02378906 108.89507812 83.50460938 108.45421875 84 108 C83.6828368 104.828368 82.22070812 101.92969949 81 99 C85 99 85 99 86.73828125 100.609375 C87.25777344 101.31578125 87.77726562 102.0221875 88.3125 102.75 C88.84488281 103.44609375 89.37726563 104.1421875 89.92578125 104.859375 C91 107 91 107 90.765625 109.15234375 C90 111 90 111 88.4375 112.8125 C86.68536684 115.04253144 86.68536684 115.04253144 87 118.4375 C87 122.54328969 86.62560492 123.88209416 84 127 C82.15370449 128.0742083 80.30539365 129.14515599 78.4453125 130.1953125 C74.5171331 133.0943842 71.500081 136.90264303 68.47680664 140.71875 C67.02734375 142.4296875 67.02734375 142.4296875 64 145 C60.25390625 144.8203125 60.25390625 144.8203125 57 144 C56.34 144.33 55.68 144.66 55 145 C54.59270772 147.32156597 54.25561323 149.6568787 54 152 C52.783125 152.226875 51.56625 152.45375 50.3125 152.6875 C45.43955152 154.30171155 42.45217709 157.22257321 39 160.875 C22.09951783 178.63423636 0.5890665 189.96785019 -20.625 201.75 C-21.27617798 202.11259918 -21.92735596 202.47519836 -22.5982666 202.8487854 C-24.45085055 203.8780996 -26.30676611 204.90109363 -28.1640625 205.921875 C-29.24123535 206.51581055 -30.3184082 207.10974609 -31.42822266 207.72167969 C-34 209 -34 209 -36 209 C-35.68075084 206.06191012 -35.44951031 204.44430764 -33.3125 202.33203125 C-32.549375 201.83058594 -31.78625 201.32914063 -31 200.8125 C-30.10410156 200.22339844 -29.20820313 199.63429687 -28.28515625 199.02734375 C-18.67290749 193.09540902 -8.91632552 187.40890483 1 182 C0.67 181.67 0.34 181.34 0 181 C-0.09762224 178.65972876 -0.12997604 176.34901619 -0.12025452 174.00828552 C-0.12110894 173.26830812 -0.12196337 172.52833072 -0.12284368 171.76592976 C-0.12450069 169.26767587 -0.11897353 166.76948802 -0.11352539 164.27124023 C-0.11324354 162.48786419 -0.11340121 160.70448803 -0.1139679 158.92111206 C-0.11425596 154.06387809 -0.10835788 149.20666859 -0.10139394 144.34944034 C-0.09516179 139.27919052 -0.09455671 134.20894019 -0.09336853 129.13868713 C-0.0902548 119.53036307 -0.08204086 109.92205032 -0.07201904 100.31373125 C-0.06085919 89.37800472 -0.05534778 78.44227766 -0.05032361 67.50654685 C-0.03985828 45.00435828 -0.02225804 22.50217978 0 0 Z M62 75 C59.31874765 77.68125235 58.08144841 79.72511161 57 83.375 C57 88.27234496 58.07819626 90.07863182 61 94 C63.5908295 95.49113354 63.5908295 95.49113354 66 96 C65.360625 94.9275 64.72125 93.855 64.0625 92.75 C61.92928232 89.17169937 60.65114633 86.61009385 61.55859375 82.421875 C61.84863281 81.54015625 62.13867188 80.6584375 62.4375 79.75 C62.72496094 78.85796875 63.01242188 77.9659375 63.30859375 77.046875 C63.53675781 76.37140625 63.76492187 75.6959375 64 75 C63.34 75 62.68 75 62 75 Z M70 127 C65.75516361 130.35638226 62.26806411 133.67462104 59 138 C59 138.66 59 139.32 59 140 C62.88397689 138.44997253 65.02979619 135.99523379 67.75 132.875 C68.54921875 131.96492187 69.3484375 131.05484375 70.171875 130.1171875 C70.77515625 129.41851562 71.3784375 128.71984375 72 128 C71.34 127.67 70.68 127.34 70 127 Z M46.375 142.25 C44.58811897 144.15328527 44.58811897 144.15328527 45 148 C45.99 148 46.98 148 48 148 C48.66 145.69 49.32 143.38 50 141 C47.92251592 140.79676308 47.92251592 140.79676308 46.375 142.25 Z M36 152.9375 C35.57074219 153.38738281 35.14148438 153.83726562 34.69921875 154.30078125 C31.6762313 157.3237687 28.41772198 160.09327574 25.20703125 162.9140625 C22.84402132 164.99164059 22.84402132 164.99164059 21 168 C25.02043212 166.353076 27.93066034 163.54548852 31.0625 160.625 C31.85624023 159.90183594 31.85624023 159.90183594 32.66601562 159.1640625 C35.41910941 156.62168229 37.88013607 154.09544145 40 151 C37.77531613 150.76806826 37.77531613 150.76806826 36 152.9375 Z M18 169 C17.67 169.66 17.34 170.32 17 171 C17.99 170.67 18.98 170.34 20 170 C19.34 169.67 18.68 169.34 18 169 Z " fill="#6E89B7" transform="translate(36,0)"/>
<path d="M0 0 C1.65 0.99 3.3 1.98 5 3 C4.67 5.64 4.34 8.28 4 11 C2.783125 11.226875 1.56625 11.45375 0.3125 11.6875 C-4.56044848 13.30171155 -7.54782291 16.22257321 -11 19.875 C-27.90048217 37.63423636 -49.4109335 48.96785019 -70.625 60.75 C-71.27617798 61.11259918 -71.92735596 61.47519836 -72.5982666 61.8487854 C-74.45085055 62.8780996 -76.30676611 63.90109363 -78.1640625 64.921875 C-79.24123535 65.51581055 -80.3184082 66.10974609 -81.42822266 66.72167969 C-84 68 -84 68 -86 68 C-85.68075084 65.06191012 -85.44951031 63.44430764 -83.3125 61.33203125 C-82.549375 60.83058594 -81.78625 60.32914063 -81 59.8125 C-80.08992188 59.214375 -79.17984375 58.61625 -78.2421875 58 C-70.73990879 53.37208831 -63.10867261 48.96501406 -55.48535156 44.54052734 C-39.22201839 35.06851009 -24.56190781 24.77701307 -11.3203125 11.2890625 C-8.48603823 8.52187164 -5.96467838 7 -2 7 C-1.855625 6.030625 -1.71125 5.06125 -1.5625 4.0625 C-1 1 -1 1 0 0 Z " fill="#E5E5E5" transform="translate(86,141)"/>
<path d="M0 0 C0.66 0.66 1.32 1.32 2 2 C-6.47100617 7.97543286 -15.04282303 13.79601066 -23.63476562 19.59570312 C-29.81101176 23.78034743 -35.87757719 28.06597019 -41.84008789 32.55102539 C-44 34 -44 34 -46 34 C-47.94107981 41.31398339 -47.94107981 41.31398339 -46.6875 48.5625 C-45.8521875 49.7690625 -45.8521875 49.7690625 -45 51 C-44.67 51.66 -44.34 52.32 -44 53 C-46.9934377 52.66739581 -48.7494744 52.18610473 -51.1875 50.375 C-53.97093997 46.72773384 -55.22728006 43.47779833 -54.80078125 38.828125 C-51.99507621 27.28692697 -37.26686385 20.63006917 -27.9375 14.375 C-26.71002506 13.5472625 -25.48281033 12.719139 -24.25585938 11.890625 C-21.90472305 10.30301608 -19.54773398 8.72467546 -17.18701172 7.15136719 C-15.20409989 5.81281816 -13.23837329 4.44796877 -11.30126953 3.04394531 C-10.52251465 2.48545898 -9.74375977 1.92697266 -8.94140625 1.3515625 C-8.28986572 0.86768066 -7.6383252 0.38379883 -6.96704102 -0.11474609 C-4.28058188 -1.32376941 -2.75959539 -0.89560101 0 0 Z " fill="#E4E4E4" transform="translate(151,44)"/>
<path d="M0 0 C3.93544623 1.31181541 5.74938163 3.95958727 8.14453125 7.1484375 C9 9 9 9 8.734375 11.11328125 C8 13 8 13 6.4375 14.8125 C4.68536684 17.04253144 4.68536684 17.04253144 5 20.4375 C5 24.54328969 4.62560492 25.88209416 2 29 C0.15996568 30.07056542 -1.68093261 31.13968937 -3.52734375 32.19921875 C-9.09273612 36.25237181 -13.47477681 41.8487876 -18 47 C-20.31 46.34 -22.62 45.68 -25 45 C-24.0409375 44.071875 -24.0409375 44.071875 -23.0625 43.125 C-20.44196535 40.51935475 -18.00903458 37.76888204 -15.5625 35 C-12.23974611 31.27917909 -8.91474312 28.07586959 -5 25 C-2.94027894 23.29999099 -2.0947397 22.50284919 -1.59375 19.84375 C-1.5628125 19.0703125 -1.531875 18.296875 -1.5 17.5 C-1.33442692 13.36067309 -1.33442692 13.36067309 0.54296875 11.3359375 C1.02378906 10.89507812 1.50460938 10.45421875 2 10 C1.6828368 6.828368 0.22070812 3.92969949 -1 1 C-0.67 0.67 -0.34 0.34 0 0 Z " fill="#E5E5E5" transform="translate(118,98)"/>
<path d="M0 0 C4.19718657 1.39906219 5.60588564 3.75656157 7.97265625 7.390625 C9.53897278 11.36894988 8.3312391 13.86818717 6.8203125 17.7109375 C5.12078654 22.45342422 7.06134644 26.60571859 9 31 C5.40940017 30.00261116 4.08827235 29.11279244 1.75 26.125 C-1.38271605 20.5308642 -1.38271605 20.5308642 -0.3359375 16.34375 C0.30522321 14.44633131 0.95106828 12.55048916 1.6015625 10.65625 C2.30914232 7.94198234 2.30914232 7.94198234 0.56640625 5.796875 C0.04949219 5.20390625 -0.46742188 4.6109375 -1 4 C-0.6875 1.75 -0.6875 1.75 0 0 Z " fill="#E4E4E4" transform="translate(154,150)"/>
</svg>
