<svg id="svg" version="1.1" xmlns="http://www.w3.org/2000/svg" xmlns:xlink="http://www.w3.org/1999/xlink" width="400" height="104.21455938697318" viewBox="0, 0, 400,104.21455938697318"><g id="svgg"><path id="path0" d="M39.167 0.417 C 39.167 0.646,39.089 0.833,38.994 0.833 C 38.877 0.833,38.878 0.939,38.998 1.164 C 39.170 1.484,39.158 1.483,38.581 1.143 C 38.159 0.894,38.000 0.859,38.035 1.021 C 38.062 1.147,37.984 1.229,37.863 1.204 C 37.741 1.179,37.683 1.225,37.733 1.305 C 37.783 1.386,37.757 1.683,37.677 1.965 C 37.552 2.398,37.570 2.463,37.792 2.377 C 37.937 2.322,38.012 2.346,37.960 2.430 C 37.883 2.554,38.606 2.605,39.208 2.518 C 39.277 2.508,39.333 2.284,39.333 2.020 C 39.333 1.462,39.550 1.248,40.272 1.094 C 41.340 0.865,42.019 2.620,41.000 2.975 C 40.725 3.071,40.500 3.236,40.500 3.342 C 40.500 3.452,40.383 3.491,40.231 3.433 C 40.041 3.360,39.990 3.401,40.057 3.576 C 40.110 3.712,40.078 3.868,39.988 3.924 C 39.898 3.980,39.845 4.143,39.871 4.287 C 39.901 4.458,39.780 4.561,39.526 4.581 C 39.312 4.599,39.069 4.719,38.987 4.848 C 38.905 4.978,38.837 5.022,38.836 4.946 C 38.831 4.690,38.333 5.309,38.333 5.571 C 38.333 5.715,38.216 5.833,38.073 5.833 C 37.931 5.833,37.855 5.900,37.905 5.981 C 38.095 6.288,37.337 6.282,36.829 5.973 C 36.464 5.751,36.323 5.557,36.378 5.349 C 36.421 5.183,36.387 4.923,36.301 4.770 C 36.192 4.575,36.207 4.507,36.351 4.538 C 36.625 4.598,36.658 3.613,36.391 3.363 C 36.235 3.218,36.161 3.256,36.076 3.524 C 36.012 3.726,36.046 3.925,36.157 3.994 C 36.295 4.079,36.276 4.173,36.091 4.327 C 35.949 4.445,35.833 4.640,35.833 4.761 C 35.833 5.058,35.541 5.218,35.223 5.096 C 35.000 5.011,34.995 4.954,35.190 4.706 C 35.395 4.444,35.389 4.438,35.125 4.645 C 34.790 4.908,34.731 4.683,35.042 4.329 C 35.156 4.199,35.076 4.238,34.864 4.415 L 34.478 4.738 34.907 5.050 C 35.302 5.339,35.361 5.806,34.971 5.565 C 34.859 5.496,34.836 5.600,34.906 5.854 L 35.014 6.250 34.747 5.833 C 34.460 5.387,34.465 5.506,34.776 6.526 C 34.861 6.805,34.834 6.855,34.651 6.747 C 34.522 6.671,34.560 6.772,34.734 6.971 C 34.911 7.173,34.966 7.333,34.859 7.333 C 34.583 7.333,34.621 7.947,34.904 8.056 C 35.035 8.106,35.232 8.039,35.342 7.907 C 35.730 7.439,37.058 8.286,36.870 8.882 C 36.847 8.954,36.900 9.146,36.987 9.308 C 37.133 9.582,37.261 28.298,37.122 29.083 C 37.089 29.267,36.971 29.585,36.859 29.792 C 36.747 29.998,36.698 30.167,36.751 30.167 C 36.803 30.167,36.750 30.272,36.632 30.400 C 36.513 30.528,36.390 30.608,36.358 30.577 C 36.326 30.546,36.126 30.587,35.914 30.668 C 35.630 30.776,35.504 30.751,35.435 30.572 C 35.384 30.439,35.284 30.343,35.213 30.358 C 34.947 30.416,34.524 30.132,34.596 29.945 C 34.651 29.800,33.842 29.752,31.460 29.759 L 28.250 29.768 31.376 29.676 C 33.095 29.625,34.501 29.527,34.501 29.458 C 34.500 29.390,34.500 29.147,34.500 28.919 L 34.500 28.505 21.183 28.544 C 13.858 28.566,7.900 28.527,7.942 28.458 C 8.036 28.307,7.630 28.294,7.259 28.436 C 7.050 28.517,7.034 28.590,7.186 28.773 C 7.344 28.964,7.324 28.986,7.080 28.892 C 6.885 28.817,6.818 28.840,6.890 28.956 C 6.960 29.071,6.879 29.104,6.664 29.048 C 6.479 28.999,6.282 28.886,6.227 28.795 C 6.165 28.695,6.263 28.675,6.478 28.743 C 6.754 28.831,6.809 28.798,6.731 28.594 C 6.616 28.295,6.401 28.255,6.247 28.504 C 6.189 28.599,6.024 28.655,5.879 28.629 C 5.713 28.600,5.606 28.717,5.587 28.949 C 5.571 29.150,5.629 29.300,5.716 29.282 C 5.803 29.264,5.909 29.344,5.951 29.458 C 6.001 29.594,5.921 29.637,5.722 29.581 C 5.554 29.534,5.620 29.592,5.868 29.711 L 6.319 29.928 5.656 30.215 C 5.059 30.474,4.953 30.477,4.608 30.251 C 4.199 29.983,3.969 30.059,4.106 30.416 C 4.152 30.535,4.109 30.682,4.011 30.743 C 3.756 30.901,3.792 31.115,4.094 31.231 C 4.298 31.309,4.331 31.254,4.243 30.978 C 4.168 30.743,4.192 30.663,4.313 30.737 C 4.742 31.002,4.452 31.637,3.923 31.591 C 3.645 31.567,3.330 31.615,3.223 31.698 C 3.104 31.792,2.986 31.780,2.917 31.667 C 2.836 31.535,2.737 31.539,2.568 31.679 C 2.439 31.786,2.333 31.802,2.333 31.715 C 2.333 31.627,2.222 31.556,2.086 31.556 C 1.899 31.556,1.883 31.610,2.023 31.778 C 2.278 32.085,2.073 32.056,1.542 31.708 C 1.297 31.548,1.154 31.511,1.225 31.626 C 1.303 31.753,1.254 31.874,1.100 31.933 C 0.876 32.019,0.880 32.083,1.131 32.466 C 1.401 32.878,1.400 32.895,1.125 32.789 C 0.926 32.713,0.833 32.758,0.833 32.932 C 0.833 33.072,0.900 33.145,0.981 33.095 C 1.162 32.983,1.358 33.658,1.213 33.893 C 1.156 33.986,1.052 33.918,0.981 33.739 C 0.890 33.508,0.867 33.570,0.900 33.959 C 0.925 34.257,0.992 34.547,1.048 34.604 C 1.218 34.774,0.718 35.165,0.304 35.186 C -0.023 35.203,-0.005 35.226,0.417 35.333 L 0.917 35.461 0.458 35.480 L 0.000 35.500 0.000 66.667 L 0.000 97.833 0.458 97.853 L 0.917 97.873 0.417 98.000 L -0.083 98.127 0.364 98.147 C 0.647 98.159,0.848 98.284,0.912 98.487 C 1.124 99.154,1.141 99.500,0.963 99.500 C 0.861 99.500,0.834 99.556,0.903 99.625 C 0.972 99.694,1.114 99.750,1.219 99.750 C 1.496 99.750,1.527 100.667,1.254 100.772 C 1.128 100.820,0.983 100.970,0.931 101.105 C 0.871 101.263,0.906 101.308,1.030 101.231 C 1.158 101.152,1.188 101.203,1.120 101.381 C 1.048 101.570,1.089 101.622,1.258 101.557 C 1.391 101.506,1.500 101.552,1.500 101.659 C 1.500 101.766,1.583 101.802,1.684 101.739 C 1.813 101.659,1.800 101.581,1.643 101.479 C 1.469 101.367,1.504 101.309,1.792 101.231 C 2.219 101.113,2.254 100.998,1.958 100.666 C 1.781 100.467,1.794 100.466,2.047 100.658 C 2.211 100.782,2.318 100.962,2.286 101.059 C 2.201 101.315,2.836 101.988,3.076 101.897 C 3.188 101.853,3.386 101.953,3.515 102.117 C 3.730 102.391,3.725 102.397,3.454 102.185 C 3.292 102.057,3.142 101.982,3.121 102.018 C 2.506 103.087,2.480 103.164,2.769 103.053 C 2.963 102.979,3.016 103.006,2.934 103.138 C 2.738 103.455,2.961 103.361,3.321 102.975 C 3.613 102.661,3.691 102.645,3.943 102.850 C 4.182 103.044,4.207 103.045,4.092 102.853 C 3.996 102.694,4.025 102.647,4.185 102.701 C 4.312 102.743,4.417 102.859,4.417 102.958 C 4.417 103.058,4.473 103.195,4.542 103.264 C 4.610 103.333,4.667 103.308,4.667 103.209 C 4.667 103.110,4.798 103.055,4.958 103.085 C 5.119 103.116,5.344 103.147,5.458 103.154 C 5.575 103.161,5.675 103.404,5.686 103.708 L 5.706 104.250 5.833 103.750 L 5.961 103.250 6.000 103.750 L 6.039 104.250 6.167 103.750 L 6.294 103.250 6.314 103.708 L 6.333 104.167 199.989 104.167 L 393.645 104.167 393.697 103.708 C 393.727 103.451,393.841 103.268,393.958 103.292 C 394.073 103.315,394.167 103.230,394.167 103.103 C 394.167 102.799,393.467 102.620,393.298 102.881 C 393.126 103.146,392.799 102.685,392.922 102.351 C 392.995 102.154,392.967 102.154,392.730 102.350 C 392.480 102.557,392.465 102.540,392.577 102.186 C 392.663 101.917,392.644 101.827,392.520 101.904 C 392.401 101.978,392.376 101.915,392.449 101.725 C 392.519 101.544,392.587 101.510,392.628 101.634 C 392.665 101.745,392.760 101.795,392.840 101.746 C 392.920 101.696,392.943 101.546,392.892 101.411 C 392.840 101.277,392.881 101.167,392.982 101.167 C 393.084 101.167,393.167 101.242,393.167 101.333 C 393.167 101.425,393.298 101.499,393.458 101.497 C 393.686 101.495,393.700 101.463,393.524 101.352 C 393.366 101.252,393.354 101.174,393.482 101.094 C 393.584 101.032,393.667 100.811,393.667 100.605 C 393.667 100.253,393.907 99.931,394.613 99.333 C 394.775 99.196,394.948 99.102,394.996 99.125 C 395.044 99.148,395.093 99.110,395.106 99.042 C 395.395 97.427,397.564 97.542,397.465 99.167 C 397.445 99.487,397.351 99.813,397.256 99.889 C 397.157 99.970,397.242 99.994,397.459 99.947 C 397.697 99.894,397.889 99.962,397.984 100.133 C 398.109 100.355,398.179 100.364,398.393 100.186 C 398.536 100.068,398.738 100.024,398.843 100.089 C 398.985 100.177,398.986 100.118,398.844 99.853 C 398.740 99.659,398.616 99.500,398.568 99.500 C 398.520 99.500,398.523 99.570,398.576 99.655 C 398.756 99.946,398.313 100.034,398.018 99.766 C 397.856 99.619,397.690 99.518,397.650 99.541 C 397.610 99.564,397.640 99.508,397.716 99.417 C 397.803 99.311,397.915 99.357,398.019 99.542 C 398.109 99.702,398.267 99.833,398.369 99.833 C 398.472 99.833,398.510 99.788,398.455 99.733 C 398.400 99.678,398.427 99.441,398.516 99.208 C 398.653 98.847,398.641 98.814,398.437 98.983 C 398.272 99.120,398.162 99.128,398.088 99.007 C 398.028 98.910,398.115 98.781,398.281 98.719 C 398.447 98.658,398.636 98.529,398.700 98.433 C 398.768 98.331,398.886 98.430,398.984 98.671 C 399.134 99.038,399.146 99.015,399.090 98.464 C 399.055 98.123,398.979 97.767,398.920 97.672 C 398.862 97.577,398.912 97.495,399.032 97.488 C 399.152 97.482,399.100 97.412,398.917 97.333 C 398.733 97.255,398.677 97.185,398.792 97.178 C 398.906 97.172,399.000 97.086,399.000 96.987 C 399.000 96.889,398.794 96.827,398.542 96.851 C 397.964 96.905,397.333 96.701,397.333 96.461 C 397.333 96.360,397.284 96.327,397.223 96.388 C 396.968 96.643,396.621 95.814,396.824 95.434 C 397.114 94.892,397.992 94.592,398.252 94.947 C 398.379 95.121,398.582 95.184,398.819 95.122 C 399.193 95.024,399.197 95.993,398.822 96.136 C 398.747 96.165,398.729 96.302,398.783 96.441 C 398.861 96.647,398.906 96.653,399.021 96.472 C 399.126 96.306,399.162 96.302,399.164 96.458 C 399.166 96.573,399.354 96.667,399.583 96.667 C 400.264 96.667,400.224 94.723,399.542 94.619 L 399.083 94.550 399.542 94.525 L 400.000 94.500 400.000 65.750 L 400.000 37.000 399.583 37.000 C 399.014 37.000,399.053 36.672,399.625 36.647 L 400.083 36.627 399.583 36.517 C 399.221 36.436,399.098 36.323,399.136 36.103 C 399.170 35.907,399.120 35.842,398.995 35.920 C 398.847 36.011,398.846 35.954,398.991 35.684 C 399.095 35.489,399.121 35.339,399.049 35.351 C 398.689 35.411,398.333 35.314,398.333 35.157 C 398.333 35.060,398.420 35.034,398.526 35.099 C 398.646 35.174,398.673 35.145,398.598 35.023 C 398.531 34.916,398.388 34.883,398.280 34.951 C 398.172 35.019,398.008 35.086,397.917 35.102 C 397.825 35.117,397.488 35.172,397.167 35.225 C 396.388 35.353,395.529 35.034,395.466 34.594 C 395.435 34.379,395.139 34.110,394.678 33.877 C 393.788 33.428,393.137 31.833,393.844 31.833 C 393.930 31.833,393.999 31.665,393.997 31.458 C 393.995 31.155,393.964 31.131,393.833 31.333 C 393.744 31.471,393.671 31.499,393.669 31.395 C 393.668 31.292,393.780 31.113,393.919 30.998 C 394.110 30.839,394.126 30.735,393.982 30.561 C 393.878 30.436,393.848 30.333,393.917 30.333 C 393.985 30.333,393.947 30.221,393.833 30.083 C 393.719 29.946,393.485 29.833,393.313 29.833 C 393.140 29.833,393.000 29.717,393.000 29.571 C 393.000 29.334,392.976 29.334,392.737 29.573 C 392.520 29.790,392.503 29.973,392.640 30.618 C 392.816 31.440,392.561 31.910,392.047 31.713 C 391.910 31.660,391.864 31.719,391.922 31.870 C 392.147 32.458,391.142 32.076,390.805 31.447 C 390.656 31.169,390.673 31.133,390.906 31.223 C 391.059 31.282,391.142 31.262,391.091 31.180 C 390.923 30.907,391.565 30.001,391.917 30.014 C 392.100 30.021,392.156 30.064,392.042 30.110 C 391.927 30.157,391.833 30.272,391.833 30.368 C 391.833 30.470,391.939 30.453,392.091 30.327 C 392.233 30.209,392.311 30.015,392.265 29.894 C 392.218 29.774,392.299 29.609,392.444 29.528 C 392.589 29.447,392.729 29.182,392.756 28.940 C 392.783 28.691,392.735 28.541,392.645 28.597 C 392.557 28.651,392.369 28.599,392.227 28.481 C 392.011 28.302,391.941 28.314,391.808 28.552 C 391.669 28.800,391.616 28.806,391.410 28.600 C 391.279 28.469,390.964 28.388,390.711 28.420 C 389.870 28.526,365.137 28.526,365.031 28.420 C 364.974 28.363,365.037 28.358,365.172 28.410 C 365.386 28.492,365.417 27.212,365.417 18.335 C 365.417 12.742,365.368 8.167,365.309 8.167 C 365.251 8.167,365.158 8.050,365.103 7.908 C 365.048 7.766,365.073 7.692,365.157 7.744 C 365.343 7.859,365.562 7.236,365.418 7.001 C 365.360 6.909,365.234 6.833,365.136 6.833 C 365.032 6.833,365.053 6.947,365.188 7.111 C 365.395 7.362,365.371 7.377,364.944 7.271 C 364.664 7.201,364.511 7.217,364.568 7.309 C 364.686 7.500,364.149 7.730,364.013 7.547 C 363.876 7.362,363.456 7.294,363.568 7.475 C 363.619 7.558,363.466 7.625,363.228 7.625 C 362.990 7.625,362.733 7.726,362.657 7.849 C 362.546 8.028,362.496 8.016,362.408 7.787 C 362.347 7.629,362.193 7.500,362.066 7.500 C 361.938 7.500,361.833 7.388,361.833 7.250 C 361.833 7.112,361.750 7.000,361.649 7.000 C 361.357 7.000,361.640 6.146,362.061 5.758 C 362.503 5.351,363.458 5.255,363.533 5.610 C 363.575 5.812,363.636 5.807,363.917 5.579 C 364.100 5.430,364.151 5.359,364.030 5.421 C 363.891 5.493,363.777 5.405,363.718 5.180 C 363.646 4.903,363.577 4.867,363.398 5.016 C 363.219 5.164,363.136 5.120,363.012 4.811 L 362.854 4.417 362.844 4.792 C 362.830 5.275,362.533 5.275,362.339 4.792 C 362.223 4.504,362.185 4.485,362.177 4.708 C 362.168 4.969,362.130 4.963,361.818 4.651 C 361.610 4.443,361.340 4.336,361.149 4.386 C 360.815 4.474,360.401 3.961,360.577 3.677 C 360.627 3.596,360.575 3.490,360.459 3.444 C 360.310 3.384,360.319 3.356,360.490 3.346 C 360.678 3.336,360.669 3.288,360.445 3.125 C 360.186 2.936,360.195 2.916,360.539 2.908 C 360.747 2.904,361.095 2.840,361.313 2.766 C 361.587 2.672,361.674 2.687,361.594 2.815 C 361.532 2.917,361.542 3.000,361.617 3.000 C 361.692 3.000,361.849 2.847,361.965 2.660 C 362.082 2.473,362.245 2.362,362.328 2.413 C 362.417 2.469,362.417 2.292,362.327 1.979 C 362.244 1.690,362.217 1.386,362.267 1.305 C 362.317 1.225,362.259 1.179,362.137 1.204 C 362.016 1.229,361.938 1.147,361.965 1.021 C 362.000 0.858,361.846 0.891,361.427 1.138 C 360.965 1.411,360.814 1.438,360.712 1.267 C 360.641 1.147,360.471 1.006,360.333 0.954 C 360.167 0.891,360.208 0.855,360.458 0.846 C 360.744 0.836,360.833 0.734,360.833 0.417 L 360.833 0.000 358.417 0.000 L 356.000 0.000 355.997 0.458 C 355.994 1.001,355.474 1.534,354.684 1.805 C 353.979 2.047,44.924 2.091,45.074 1.849 C 45.125 1.766,45.036 1.731,44.875 1.771 C 44.553 1.851,43.604 1.119,43.790 0.933 C 43.854 0.868,43.778 0.865,43.620 0.926 C 43.387 1.015,43.333 0.939,43.333 0.518 L 43.333 0.000 41.250 0.000 L 39.167 0.000 39.167 0.417 M38.667 1.417 C 38.810 1.589,38.816 1.667,38.687 1.667 C 38.584 1.667,38.500 1.746,38.500 1.843 C 38.500 1.940,38.587 1.966,38.692 1.901 C 38.811 1.828,38.840 1.855,38.767 1.972 C 38.650 2.161,38.100 2.156,37.907 1.963 C 37.781 1.837,38.128 1.167,38.319 1.167 C 38.396 1.167,38.553 1.279,38.667 1.417 M362.008 1.514 C 362.110 1.705,362.148 1.907,362.093 1.963 C 361.900 2.156,361.350 2.161,361.233 1.972 C 361.160 1.855,361.189 1.828,361.308 1.901 C 361.413 1.966,361.500 1.940,361.500 1.843 C 361.500 1.746,361.416 1.667,361.313 1.667 C 361.184 1.667,361.190 1.589,361.333 1.417 C 361.615 1.077,361.787 1.102,362.008 1.514 M36.509 2.726 C 36.331 3.021,36.332 3.047,36.514 2.875 C 36.845 2.561,37.074 2.625,36.812 2.958 C 36.605 3.222,36.611 3.228,36.873 3.023 C 37.123 2.827,37.178 2.836,37.274 3.086 C 37.350 3.283,37.256 3.475,36.984 3.684 C 36.764 3.854,36.682 3.994,36.802 3.996 C 36.921 3.998,36.969 4.081,36.908 4.180 C 36.847 4.280,37.030 4.240,37.315 4.093 C 37.600 3.945,37.833 3.758,37.833 3.676 C 37.833 3.594,37.875 3.418,37.926 3.285 C 37.988 3.125,37.801 2.930,37.372 2.706 L 36.725 2.369 36.509 2.726 M363.613 3.177 C 363.754 3.458,363.901 3.655,363.940 3.615 C 364.043 3.512,363.639 2.667,363.486 2.667 C 363.416 2.667,363.473 2.896,363.613 3.177 M35.333 3.980 C 35.333 4.060,35.440 4.214,35.570 4.322 C 35.765 4.484,35.791 4.458,35.717 4.176 C 35.630 3.841,35.333 3.689,35.333 3.980 M363.167 4.621 C 363.167 4.749,363.245 4.805,363.341 4.745 C 363.436 4.686,363.624 4.729,363.757 4.839 C 363.958 5.006,364.000 4.973,363.997 4.645 C 363.995 4.329,363.963 4.300,363.833 4.500 C 363.744 4.637,363.671 4.669,363.669 4.569 C 363.668 4.470,363.554 4.389,363.417 4.389 C 363.279 4.389,363.167 4.493,363.167 4.621 M364.821 5.707 C 364.637 6.345,364.671 6.558,364.907 6.247 C 365.045 6.064,365.158 6.009,365.161 6.125 C 365.167 6.344,365.500 6.425,365.500 6.207 C 365.500 6.090,364.849 5.610,364.821 5.707 M6.375 29.229 C 6.280 29.468,6.108 29.393,5.854 29.000 L 5.583 28.583 6.000 28.854 C 6.229 29.002,6.398 29.171,6.375 29.229 M392.500 28.917 C 392.696 29.153,392.657 29.219,392.375 29.125 C 392.306 29.102,392.272 29.018,392.298 28.938 C 392.325 28.858,392.228 28.838,392.081 28.894 C 391.928 28.953,391.859 28.927,391.918 28.831 C 392.062 28.598,392.260 28.627,392.500 28.917 M392.000 29.431 C 392.000 29.703,391.561 29.565,391.442 29.256 C 391.385 29.108,391.462 29.065,391.679 29.122 C 391.856 29.168,392.000 29.307,392.000 29.431 M370.217 29.791 C 369.374 29.821,367.949 29.821,367.050 29.791 C 366.152 29.761,366.842 29.736,368.583 29.736 C 370.325 29.736,371.060 29.761,370.217 29.791 M6.930 30.144 C 6.881 30.224,6.988 30.421,7.167 30.583 C 7.346 30.745,7.452 30.943,7.403 31.022 C 7.354 31.102,7.386 31.167,7.475 31.167 C 7.648 31.167,7.536 31.791,7.341 31.912 C 6.625 32.355,5.552 31.955,5.722 31.308 C 5.775 31.102,5.737 30.835,5.636 30.713 C 5.492 30.539,5.517 30.517,5.755 30.608 C 5.988 30.698,6.034 30.662,5.955 30.457 C 5.881 30.264,5.935 30.205,6.149 30.247 C 6.312 30.278,6.551 30.236,6.681 30.154 C 6.980 29.965,7.043 29.963,6.930 30.144 M393.889 30.878 C 393.748 31.106,393.354 30.669,393.380 30.316 C 393.404 30.004,393.420 30.007,393.690 30.364 C 393.846 30.571,393.936 30.803,393.889 30.878 M4.875 30.729 C 4.780 30.968,4.608 30.893,4.354 30.500 L 4.083 30.083 4.500 30.354 C 4.729 30.502,4.898 30.671,4.875 30.729 M395.586 30.496 C 395.525 30.594,395.537 30.664,395.613 30.651 C 395.950 30.593,396.062 30.685,395.833 30.833 C 395.620 30.971,395.626 30.995,395.875 30.997 C 396.227 31.001,396.253 30.779,395.932 30.512 C 395.767 30.375,395.663 30.371,395.586 30.496 M1.964 32.301 C 2.187 32.637,2.180 32.667,1.874 32.667 C 1.476 32.667,1.092 32.255,1.251 31.999 C 1.405 31.749,1.674 31.863,1.964 32.301 M5.092 32.068 C 5.222 32.198,5.470 32.266,5.645 32.221 C 5.820 32.175,6.020 32.231,6.090 32.345 C 6.163 32.462,6.150 32.509,6.059 32.453 C 5.972 32.399,5.805 32.508,5.688 32.695 C 5.571 32.883,5.556 32.985,5.654 32.924 C 5.910 32.767,5.877 33.090,5.615 33.307 C 5.452 33.443,5.320 33.398,5.089 33.128 C 4.883 32.888,4.845 32.746,4.975 32.703 C 5.081 32.667,5.128 32.573,5.079 32.493 C 5.030 32.413,4.860 32.389,4.703 32.440 C 4.459 32.518,4.454 32.504,4.667 32.349 C 4.889 32.187,4.889 32.148,4.667 32.003 C 4.482 31.881,4.474 31.838,4.637 31.836 C 4.758 31.834,4.963 31.939,5.092 32.068 M396.971 32.135 C 396.775 32.384,396.781 32.392,397.025 32.201 C 397.243 32.032,397.316 32.030,397.370 32.193 C 397.418 32.337,397.473 32.345,397.552 32.218 C 397.742 31.910,397.206 31.834,396.971 32.135 M398.459 33.277 C 398.575 33.324,398.619 33.442,398.559 33.540 C 398.494 33.645,398.527 33.670,398.641 33.599 C 398.747 33.534,398.833 33.572,398.833 33.685 C 398.833 33.797,398.882 33.841,398.940 33.782 C 399.080 33.642,398.681 33.163,398.438 33.180 C 398.321 33.188,398.329 33.225,398.459 33.277 M2.960 35.888 C 3.075 36.145,3.093 36.308,3.000 36.250 C 2.907 36.193,2.787 36.261,2.733 36.402 C 2.664 36.581,2.442 36.647,2.000 36.621 C 1.651 36.600,1.395 36.536,1.431 36.477 C 1.537 36.306,1.067 35.991,0.907 36.126 C 0.827 36.194,0.852 36.131,0.962 35.985 C 1.073 35.839,1.125 35.681,1.078 35.633 C 1.031 35.586,1.121 35.443,1.278 35.315 C 1.525 35.115,1.544 35.117,1.415 35.330 C 1.324 35.481,1.451 35.442,1.742 35.230 C 2.283 34.836,2.552 34.981,2.960 35.888 M399.000 37.352 C 399.000 37.525,398.906 37.668,398.792 37.669 C 398.638 37.671,398.643 37.710,398.809 37.815 C 398.967 37.915,398.980 37.993,398.851 38.072 C 398.750 38.135,398.592 38.140,398.500 38.083 C 398.408 38.027,398.333 38.060,398.333 38.157 C 398.333 38.428,397.557 38.366,397.262 38.071 C 397.118 37.927,397.000 37.698,397.000 37.562 C 397.000 37.408,396.921 37.361,396.792 37.439 C 396.668 37.513,396.685 37.433,396.833 37.240 C 397.279 36.663,397.909 36.385,398.094 36.684 C 398.231 36.906,398.525 36.683,398.407 36.447 C 398.352 36.339,398.464 36.427,398.654 36.643 C 398.844 36.860,399.000 37.179,399.000 37.352 M3.026 96.840 C 3.301 97.164,3.263 97.913,2.981 97.738 C 2.900 97.688,2.833 97.761,2.833 97.901 C 2.833 98.041,2.674 98.240,2.480 98.344 C 2.203 98.493,2.154 98.488,2.256 98.324 C 2.348 98.175,2.318 98.157,2.151 98.261 C 1.817 98.469,1.295 98.530,1.408 98.347 C 1.460 98.263,1.404 98.094,1.284 97.972 C 0.996 97.680,0.806 97.167,0.986 97.167 C 1.064 97.167,1.169 97.009,1.219 96.817 C 1.270 96.624,1.386 96.513,1.477 96.569 C 1.569 96.626,1.694 96.590,1.757 96.489 C 1.915 96.232,2.693 96.447,3.026 96.840 M399.167 97.000 C 399.167 97.092,399.354 97.167,399.583 97.167 C 399.813 97.167,400.000 97.092,400.000 97.000 C 400.000 96.908,399.813 96.833,399.583 96.833 C 399.354 96.833,399.167 96.908,399.167 97.000 M395.987 100.375 C 395.980 100.490,395.952 100.699,395.924 100.840 C 395.895 100.984,396.121 101.260,396.436 101.467 C 396.746 101.670,397.000 101.753,397.000 101.650 C 397.000 101.548,397.116 101.509,397.259 101.564 C 397.421 101.626,397.475 101.595,397.404 101.479 C 397.342 101.379,397.372 101.246,397.472 101.184 C 397.590 101.111,397.515 100.900,397.255 100.578 C 396.895 100.131,396.821 100.105,396.494 100.304 C 396.295 100.425,396.182 100.444,396.242 100.346 C 396.303 100.247,396.274 100.167,396.177 100.167 C 396.079 100.167,395.994 100.260,395.987 100.375 M397.119 101.286 C 396.891 101.514,396.795 101.528,396.626 101.358 C 396.457 101.188,396.479 101.171,396.736 101.268 C 396.975 101.360,397.021 101.335,396.918 101.169 C 396.821 101.012,396.846 100.988,397.003 101.085 C 397.169 101.187,397.193 101.142,397.102 100.902 C 397.004 100.645,397.021 100.624,397.191 100.793 C 397.362 100.962,397.348 101.057,397.119 101.286 M1.645 101.109 C 1.545 101.230,1.395 101.288,1.312 101.237 C 1.102 101.107,1.266 100.889,1.573 100.889 C 1.766 100.889,1.783 100.943,1.645 101.109 M7.374 101.163 C 7.971 101.632,8.037 102.078,7.584 102.567 C 7.374 102.794,7.250 103.034,7.309 103.100 C 7.368 103.166,7.285 103.173,7.125 103.115 C 6.950 103.052,6.832 103.092,6.831 103.214 C 6.829 103.340,6.782 103.354,6.706 103.250 C 6.638 103.158,6.396 103.083,6.167 103.083 C 5.718 103.083,5.609 102.700,5.887 102.105 C 5.988 101.890,5.976 101.828,5.850 101.906 C 5.749 101.969,5.667 101.940,5.667 101.843 C 5.667 101.746,5.742 101.667,5.833 101.667 C 5.925 101.667,6.000 101.566,6.000 101.442 C 6.000 101.250,6.528 100.880,6.853 100.845 C 6.909 100.838,7.143 100.982,7.374 101.163 M395.391 101.590 C 395.337 101.730,395.422 101.988,395.579 102.162 C 395.862 102.474,395.790 102.930,395.488 102.743 C 395.403 102.690,395.333 102.686,395.333 102.734 C 395.333 102.782,395.492 102.907,395.687 103.011 C 395.952 103.152,396.011 103.152,395.922 103.009 C 395.858 102.904,395.901 102.702,396.019 102.560 C 396.198 102.345,396.185 102.274,395.941 102.137 C 395.694 101.999,395.682 101.929,395.866 101.695 C 396.065 101.440,396.056 101.438,395.760 101.667 C 395.467 101.894,395.448 101.890,395.547 101.625 C 395.607 101.465,395.619 101.333,395.573 101.333 C 395.527 101.333,395.445 101.449,395.391 101.590 M394.336 101.771 C 394.334 101.966,394.214 102.225,394.069 102.345 C 393.831 102.543,393.841 102.579,394.163 102.698 C 394.389 102.782,394.476 102.908,394.399 103.040 C 394.331 103.156,394.431 103.115,394.619 102.949 C 394.808 102.784,395.121 102.637,395.315 102.622 C 395.741 102.590,395.744 102.567,395.373 102.096 C 395.212 101.891,394.978 101.757,394.854 101.799 C 394.730 101.840,394.563 101.771,394.483 101.645 C 394.375 101.474,394.338 101.506,394.336 101.771 M3.248 102.625 C 3.217 102.785,3.186 102.940,3.179 102.968 C 3.172 102.996,3.088 102.971,2.992 102.912 C 2.872 102.838,2.879 102.729,3.012 102.568 C 3.268 102.260,3.316 102.272,3.248 102.625 M394.564 103.407 C 394.513 103.539,394.501 103.783,394.537 103.949 C 394.578 104.137,394.635 104.047,394.689 103.708 C 394.780 103.141,394.721 102.998,394.564 103.407 " stroke="none" fill="#6c8cbc" fill-rule="evenodd"></path><path id="path1" d="M44.501 0.375 C 44.502 0.618,44.660 0.823,44.950 0.958 C 45.411 1.172,353.821 1.194,354.583 0.980 C 354.789 0.923,354.937 0.716,354.969 0.443 L 355.022 0.000 199.761 0.000 L 44.500 0.000 44.501 0.375 M362.274 2.538 C 362.319 2.612,362.438 2.622,362.537 2.560 C 362.656 2.487,362.669 2.528,362.577 2.678 C 362.354 3.038,362.376 3.973,362.605 3.885 C 362.713 3.844,362.780 3.612,362.753 3.369 C 362.657 2.499,362.960 2.238,363.276 2.918 C 363.432 3.255,363.422 3.360,363.224 3.471 C 363.011 3.590,363.013 3.637,363.243 3.828 C 363.472 4.017,363.492 4.004,363.392 3.732 C 363.280 3.424,363.285 3.424,363.638 3.734 C 363.840 3.911,364.000 3.966,364.000 3.859 C 364.000 3.753,363.941 3.667,363.870 3.667 C 363.798 3.667,363.655 3.442,363.551 3.167 C 363.355 2.646,363.457 2.523,363.800 2.867 C 363.931 2.997,364.000 3.004,364.000 2.887 C 364.000 2.788,363.794 2.622,363.542 2.518 C 363.039 2.310,362.142 2.325,362.274 2.538 M36.188 2.724 C 36.040 2.902,36.054 3.004,36.248 3.165 C 36.421 3.309,36.500 3.316,36.500 3.187 C 36.500 3.084,36.406 2.999,36.292 2.997 C 36.151 2.996,36.162 2.945,36.329 2.840 C 36.463 2.755,36.530 2.641,36.477 2.588 C 36.424 2.535,36.294 2.596,36.188 2.724 M364.597 5.607 C 364.539 5.758,364.531 5.920,364.579 5.968 C 364.627 6.016,364.667 5.968,364.667 5.861 C 364.667 5.754,364.746 5.667,364.843 5.667 C 364.940 5.667,364.978 5.735,364.926 5.818 C 364.875 5.901,364.985 5.929,365.170 5.881 C 365.490 5.797,365.492 5.780,365.212 5.568 C 364.823 5.273,364.723 5.279,364.597 5.607 M34.661 8.901 C 34.749 9.132,34.757 9.361,34.680 9.408 C 34.603 9.456,34.527 13.768,34.511 18.990 L 34.482 28.484 35.151 28.825 C 36.563 29.546,36.525 29.827,36.466 19.071 C 36.413 9.299,36.397 9.112,35.614 9.175 C 34.990 9.224,34.833 9.175,34.833 8.927 C 34.833 8.794,34.759 8.640,34.667 8.584 C 34.558 8.516,34.555 8.624,34.661 8.901 M365.412 18.417 C 365.412 23.917,365.433 26.143,365.458 23.363 C 365.484 20.584,365.484 16.084,365.458 13.363 C 365.433 10.643,365.412 12.917,365.412 18.417 M12.958 28.458 C 15.548 28.484,19.785 28.484,22.375 28.458 C 24.965 28.432,22.846 28.411,17.667 28.411 C 12.487 28.411,10.369 28.432,12.958 28.458 M377.303 28.458 C 379.716 28.484,383.616 28.484,385.970 28.458 C 388.324 28.432,386.350 28.411,381.583 28.411 C 376.817 28.411,374.891 28.432,377.303 28.458 M395.222 30.083 C 395.222 30.252,395.390 30.333,395.736 30.332 L 396.250 30.331 395.773 30.082 C 395.191 29.779,395.222 29.779,395.222 30.083 M394.568 30.691 C 394.425 30.922,394.788 30.987,395.070 30.780 C 395.332 30.589,395.326 30.571,394.999 30.571 C 394.803 30.571,394.609 30.625,394.568 30.691 M395.222 31.257 C 395.222 31.447,395.323 31.497,395.569 31.431 C 395.760 31.380,395.973 31.337,396.042 31.336 C 396.110 31.334,396.167 31.256,396.167 31.161 C 396.167 31.045,396.066 31.042,395.859 31.153 C 395.656 31.261,395.495 31.261,395.387 31.153 C 395.279 31.045,395.222 31.081,395.222 31.257 M395.912 31.675 C 395.881 31.725,395.914 31.861,395.986 31.977 C 396.058 32.093,396.090 32.390,396.057 32.636 C 396.025 32.882,396.045 32.971,396.103 32.833 C 396.160 32.696,396.367 32.446,396.562 32.277 C 396.757 32.109,396.838 32.010,396.742 32.058 C 396.646 32.106,396.458 32.072,396.325 31.982 C 396.153 31.867,396.285 31.832,396.785 31.862 C 397.170 31.884,397.539 31.850,397.604 31.785 C 397.728 31.661,397.643 31.645,396.609 31.607 C 396.257 31.594,395.943 31.624,395.912 31.675 M396.903 32.544 C 396.825 32.790,396.758 32.811,396.566 32.652 C 396.370 32.489,396.346 32.505,396.434 32.736 C 396.494 32.892,396.646 32.980,396.772 32.931 C 396.897 32.883,397.000 32.916,397.000 33.005 C 397.000 33.094,397.084 33.167,397.187 33.167 C 397.315 33.167,397.307 33.086,397.163 32.913 C 397.047 32.773,397.011 32.604,397.082 32.538 C 397.154 32.471,397.246 32.510,397.287 32.625 C 397.396 32.931,397.592 32.879,397.618 32.536 C 397.648 32.134,397.030 32.142,396.903 32.544 M398.077 33.292 C 398.160 33.569,398.121 33.667,397.928 33.667 C 397.784 33.667,397.667 33.754,397.667 33.861 C 397.667 33.968,397.716 34.006,397.776 33.946 C 397.921 33.801,398.354 34.165,398.245 34.341 C 398.199 34.416,398.237 34.524,398.331 34.582 C 398.424 34.640,398.500 34.533,398.500 34.343 C 398.500 34.154,398.575 34.000,398.667 34.000 C 398.758 34.000,398.815 34.084,398.792 34.188 C 398.769 34.291,398.863 34.409,399.000 34.450 C 399.222 34.517,399.222 34.506,399.000 34.349 C 398.821 34.222,398.811 34.171,398.965 34.169 C 399.140 34.167,399.140 34.124,398.965 33.933 C 398.812 33.768,398.689 33.750,398.538 33.874 C 398.421 33.969,398.273 33.995,398.209 33.931 C 398.145 33.867,398.178 33.763,398.282 33.698 C 398.418 33.614,398.400 33.487,398.219 33.249 C 397.971 32.924,397.968 32.924,398.077 33.292 M398.536 33.177 C 398.694 33.269,398.898 33.473,398.990 33.630 C 399.081 33.788,399.159 33.828,399.162 33.720 C 399.168 33.466,398.700 32.999,398.446 33.005 C 398.338 33.008,398.379 33.085,398.536 33.177 M399.167 36.167 C 399.167 36.258,399.354 36.333,399.583 36.333 C 399.813 36.333,400.000 36.258,400.000 36.167 C 400.000 36.075,399.813 36.000,399.583 36.000 C 399.354 36.000,399.167 36.075,399.167 36.167 M398.854 99.772 C 398.744 100.013,398.694 100.250,398.744 100.299 C 398.793 100.349,398.833 100.297,398.833 100.185 C 398.833 100.072,398.890 100.015,398.958 100.058 C 399.027 100.100,399.094 99.954,399.107 99.734 C 399.138 99.225,399.100 99.231,398.854 99.772 M395.503 103.074 L 395.090 103.303 395.529 103.276 C 395.770 103.262,395.937 103.200,395.900 103.139 C 395.862 103.078,395.925 102.990,396.041 102.944 C 396.156 102.898,396.175 102.856,396.083 102.852 C 395.992 102.848,395.731 102.948,395.503 103.074 " stroke="none" fill="#647ca4" fill-rule="evenodd"></path><path id="path2" d="M43.333 0.518 C 43.333 0.939,43.387 1.015,43.620 0.926 C 43.778 0.865,43.854 0.868,43.790 0.933 C 43.604 1.119,44.553 1.851,44.875 1.771 C 45.036 1.731,45.125 1.766,45.074 1.849 C 44.924 2.091,353.979 2.047,354.684 1.805 C 355.942 1.373,356.572 -0.000,355.511 0.000 C 355.106 0.000,355.013 0.076,354.969 0.443 C 354.937 0.716,354.789 0.923,354.583 0.980 C 353.821 1.194,45.411 1.172,44.950 0.958 C 44.660 0.823,44.502 0.618,44.501 0.375 C 44.500 0.058,44.410 0.000,43.917 0.000 C 43.375 0.000,43.333 0.037,43.333 0.518 M40.083 1.121 C 39.547 1.253,39.333 1.508,39.333 2.020 C 39.333 2.284,39.258 2.509,39.167 2.521 C 39.075 2.532,38.906 2.556,38.792 2.573 C 38.677 2.590,38.404 2.541,38.185 2.464 C 37.691 2.290,37.590 2.379,37.811 2.792 C 38.068 3.271,37.853 3.815,37.294 4.104 C 37.020 4.245,36.847 4.280,36.908 4.180 C 36.969 4.081,36.931 4.000,36.823 4.000 C 36.676 4.000,36.679 3.936,36.833 3.750 C 36.977 3.577,36.983 3.500,36.854 3.500 C 36.664 3.500,36.647 3.546,36.597 4.208 C 36.581 4.415,36.473 4.563,36.357 4.538 C 36.207 4.506,36.191 4.573,36.301 4.770 C 36.387 4.923,36.421 5.183,36.378 5.349 C 36.323 5.557,36.464 5.751,36.829 5.973 C 37.337 6.282,38.095 6.288,37.905 5.981 C 37.855 5.900,37.931 5.833,38.073 5.833 C 38.216 5.833,38.333 5.715,38.333 5.571 C 38.333 5.309,38.831 4.690,38.836 4.946 C 38.837 5.022,38.905 4.978,38.987 4.848 C 39.069 4.719,39.312 4.599,39.526 4.581 C 39.780 4.561,39.901 4.458,39.871 4.287 C 39.845 4.143,39.898 3.980,39.988 3.924 C 40.078 3.868,40.110 3.712,40.057 3.576 C 39.990 3.401,40.041 3.360,40.231 3.433 C 40.383 3.491,40.500 3.452,40.500 3.342 C 40.500 3.236,40.725 3.071,41.000 2.975 C 41.614 2.761,41.680 2.107,41.155 1.439 C 40.809 0.999,40.704 0.968,40.083 1.121 M361.333 2.704 C 361.012 2.872,360.600 2.973,360.417 2.929 C 360.101 2.854,360.100 2.862,360.384 3.075 C 360.609 3.243,360.630 3.322,360.467 3.387 C 360.289 3.458,360.290 3.476,360.468 3.487 C 360.588 3.494,360.641 3.573,360.585 3.663 C 360.403 3.958,360.807 4.476,361.149 4.386 C 361.340 4.336,361.610 4.443,361.818 4.651 C 362.130 4.963,362.168 4.969,362.177 4.708 C 362.185 4.485,362.223 4.504,362.339 4.792 C 362.421 4.998,362.567 5.167,362.661 5.167 C 362.756 5.167,362.838 4.998,362.844 4.792 L 362.854 4.417 363.012 4.811 C 363.143 5.137,363.213 5.169,363.418 4.999 C 363.620 4.831,363.667 4.841,363.667 5.053 C 363.667 5.196,363.754 5.368,363.862 5.434 C 363.999 5.519,364.018 5.461,363.925 5.236 C 363.853 5.060,363.790 4.827,363.786 4.717 C 363.780 4.576,363.689 4.566,363.472 4.682 C 363.235 4.808,363.167 4.785,363.167 4.579 C 363.167 4.433,363.236 4.357,363.322 4.410 C 363.498 4.518,363.658 4.311,363.745 3.862 C 363.780 3.678,363.707 3.556,363.561 3.556 C 363.428 3.556,363.357 3.655,363.404 3.778 C 363.451 3.900,363.425 4.000,363.346 4.000 C 363.070 4.000,363.023 3.527,363.288 3.425 C 363.491 3.347,363.509 3.276,363.363 3.130 C 362.975 2.742,362.683 2.840,362.746 3.337 C 362.781 3.613,362.718 3.842,362.594 3.889 C 362.453 3.944,362.397 3.838,362.426 3.571 C 362.541 2.525,362.198 2.253,361.333 2.704 M362.054 5.757 C 361.639 6.145,361.360 7.000,361.649 7.000 C 361.750 7.000,361.833 7.112,361.833 7.250 C 361.833 7.388,361.938 7.500,362.066 7.500 C 362.193 7.500,362.347 7.629,362.408 7.787 C 362.496 8.016,362.546 8.028,362.657 7.849 C 362.733 7.726,362.990 7.625,363.228 7.625 C 363.466 7.625,363.619 7.558,363.568 7.475 C 363.456 7.294,363.876 7.362,364.013 7.547 C 364.149 7.730,364.686 7.500,364.568 7.309 C 364.512 7.218,364.651 7.198,364.903 7.261 C 365.447 7.398,365.467 7.209,364.930 7.005 C 364.609 6.883,364.549 6.773,364.635 6.467 L 364.743 6.083 364.800 6.458 C 364.833 6.677,364.973 6.832,365.137 6.831 C 365.345 6.829,365.362 6.794,365.203 6.692 C 365.074 6.611,365.035 6.429,365.104 6.237 C 365.168 6.061,365.161 5.970,365.089 6.035 C 365.017 6.100,364.735 6.038,364.464 5.898 C 364.192 5.757,363.864 5.683,363.735 5.733 C 363.606 5.782,363.500 5.725,363.500 5.605 C 363.500 5.262,362.466 5.370,362.054 5.757 M35.342 7.907 C 35.232 8.039,35.045 8.110,34.927 8.064 C 34.790 8.012,34.674 8.174,34.606 8.512 C 34.459 9.246,34.473 9.536,34.651 9.426 C 34.734 9.375,34.782 9.202,34.758 9.042 C 34.734 8.881,34.747 8.844,34.786 8.958 C 34.862 9.179,35.025 9.221,35.614 9.175 C 36.397 9.112,36.413 9.299,36.466 19.071 C 36.525 29.928,36.569 29.631,35.025 28.748 C 34.320 28.345,26.665 28.054,27.056 28.445 C 27.117 28.506,28.817 28.538,30.834 28.516 L 34.500 28.476 34.500 28.905 C 34.500 29.140,34.500 29.390,34.501 29.458 C 34.501 29.527,33.095 29.625,31.376 29.676 L 28.250 29.768 31.460 29.759 C 33.842 29.752,34.651 29.800,34.596 29.945 C 34.524 30.132,34.947 30.416,35.213 30.358 C 35.284 30.343,35.384 30.439,35.435 30.572 C 35.505 30.754,35.628 30.776,35.931 30.661 C 36.152 30.577,36.333 30.547,36.333 30.594 C 36.333 30.641,36.438 30.583,36.567 30.465 C 36.695 30.347,36.772 30.221,36.739 30.186 C 36.706 30.151,36.765 29.964,36.871 29.770 C 36.976 29.576,37.089 29.267,37.122 29.083 C 37.261 28.298,37.133 9.582,36.987 9.308 C 36.900 9.146,36.847 8.954,36.870 8.882 C 37.058 8.286,35.730 7.439,35.342 7.907 M34.542 10.583 C 34.544 10.950,34.578 11.080,34.618 10.873 C 34.658 10.666,34.656 10.366,34.615 10.206 C 34.573 10.047,34.540 10.217,34.542 10.583 M365.051 28.440 C 365.171 28.560,372.840 28.549,372.960 28.429 C 373.021 28.368,371.250 28.329,369.024 28.342 C 366.798 28.355,365.010 28.399,365.051 28.440 M5.891 29.042 C 5.846 29.115,5.908 29.154,6.029 29.129 C 6.151 29.104,6.229 29.183,6.204 29.304 C 6.179 29.425,6.236 29.477,6.332 29.418 C 6.427 29.359,6.455 29.229,6.393 29.129 C 6.320 29.010,6.406 28.980,6.641 29.042 C 6.839 29.093,6.959 29.069,6.909 28.987 C 6.799 28.809,6.008 28.852,5.891 29.042 M367.050 29.791 C 367.949 29.821,369.374 29.821,370.217 29.791 C 371.060 29.761,370.325 29.736,368.583 29.736 C 366.842 29.736,366.152 29.761,367.050 29.791 M5.500 30.167 C 5.500 30.258,5.584 30.315,5.688 30.292 C 5.791 30.269,5.913 30.356,5.960 30.485 C 6.021 30.653,5.962 30.688,5.749 30.606 C 5.517 30.517,5.492 30.540,5.636 30.713 C 5.737 30.835,5.775 31.102,5.722 31.308 C 5.552 31.955,6.625 32.355,7.341 31.912 C 7.536 31.791,7.648 31.167,7.475 31.167 C 7.386 31.167,7.354 31.102,7.403 31.022 C 7.452 30.943,7.346 30.745,7.167 30.583 C 6.988 30.421,6.889 30.212,6.946 30.119 C 7.006 30.021,6.969 29.999,6.860 30.067 C 6.530 30.271,6.011 30.320,5.910 30.156 C 5.782 29.949,5.500 29.956,5.500 30.167 M391.291 30.516 C 391.130 30.799,391.040 31.097,391.091 31.180 C 391.142 31.262,391.059 31.282,390.906 31.223 C 390.585 31.100,390.801 31.634,391.199 31.949 C 391.520 32.203,392.031 32.156,391.927 31.882 C 391.878 31.756,391.931 31.668,392.044 31.686 C 392.429 31.748,392.844 31.463,392.770 31.189 C 392.730 31.039,392.656 30.727,392.605 30.494 C 392.459 29.834,391.672 29.847,391.291 30.516 M393.380 30.324 C 393.367 30.500,393.460 30.731,393.588 30.837 C 393.777 30.994,393.806 30.959,393.747 30.652 C 393.649 30.141,393.410 29.928,393.380 30.324 M393.894 30.208 C 393.912 30.323,393.979 30.502,394.045 30.606 C 394.110 30.710,394.051 30.888,393.915 31.002 C 393.778 31.115,393.668 31.292,393.669 31.395 C 393.671 31.499,393.744 31.471,393.833 31.333 C 393.964 31.131,393.995 31.155,393.997 31.458 C 393.999 31.665,393.930 31.833,393.844 31.833 C 393.137 31.833,393.788 33.428,394.678 33.877 C 395.139 34.110,395.435 34.379,395.466 34.594 C 395.529 35.034,396.388 35.353,397.167 35.225 C 397.488 35.172,397.825 35.117,397.917 35.102 C 398.008 35.086,398.172 35.019,398.280 34.951 C 398.388 34.883,398.531 34.916,398.598 35.023 C 398.673 35.145,398.646 35.174,398.526 35.099 C 398.420 35.034,398.333 35.051,398.333 35.137 C 398.333 35.224,398.483 35.334,398.667 35.382 C 399.048 35.481,399.067 35.436,398.827 34.989 C 398.703 34.757,398.709 34.667,398.848 34.667 C 398.989 34.667,398.992 34.607,398.858 34.446 C 398.724 34.284,398.729 34.170,398.879 34.019 C 399.041 33.856,399.023 33.837,398.792 33.925 C 398.631 33.986,398.500 34.182,398.500 34.361 C 398.500 34.540,398.424 34.639,398.331 34.582 C 398.237 34.524,398.199 34.416,398.245 34.341 C 398.354 34.165,397.921 33.801,397.776 33.946 C 397.716 34.006,397.667 33.968,397.667 33.861 C 397.667 33.754,397.779 33.667,397.917 33.667 C 398.054 33.667,398.167 33.594,398.167 33.505 C 398.167 33.416,398.281 33.388,398.422 33.442 C 398.642 33.526,398.637 33.572,398.380 33.779 C 398.114 33.994,398.125 33.998,398.488 33.821 C 399.066 33.539,398.519 33.104,397.889 33.344 C 397.368 33.542,397.289 33.540,397.417 33.333 C 397.473 33.242,397.403 33.167,397.260 33.167 C 397.117 33.167,397.000 33.094,397.000 33.005 C 397.000 32.916,396.897 32.883,396.772 32.931 C 396.646 32.980,396.494 32.892,396.434 32.736 C 396.343 32.498,396.366 32.487,396.580 32.664 C 396.719 32.779,396.839 32.809,396.846 32.729 C 396.853 32.649,396.889 32.419,396.926 32.219 L 396.995 31.854 396.606 32.219 C 396.392 32.419,396.170 32.696,396.113 32.833 C 396.050 32.985,396.017 32.919,396.030 32.667 C 396.069 31.899,395.835 31.364,395.499 31.452 C 395.181 31.535,395.121 31.144,395.411 30.880 C 395.489 30.808,395.499 30.844,395.434 30.958 C 395.368 31.073,395.385 31.167,395.472 31.167 C 395.657 31.167,395.882 30.660,395.754 30.532 C 395.706 30.484,395.661 30.551,395.655 30.681 C 395.648 30.820,395.585 30.780,395.500 30.583 C 395.378 30.298,395.355 30.292,395.345 30.542 C 395.335 30.797,395.153 30.876,394.708 30.817 C 394.574 30.799,394.579 30.745,394.756 30.290 C 394.843 30.066,394.806 30.021,394.603 30.099 C 394.456 30.155,394.378 30.287,394.430 30.392 C 394.482 30.497,394.417 30.452,394.286 30.292 C 394.005 29.949,393.850 29.916,393.894 30.208 M1.833 31.833 C 1.833 31.936,1.756 31.972,1.663 31.914 C 1.569 31.856,1.512 31.908,1.538 32.029 C 1.563 32.151,1.477 32.227,1.347 32.199 C 1.151 32.157,1.148 32.193,1.326 32.407 C 1.639 32.785,2.058 32.741,1.954 32.341 C 1.907 32.162,1.951 31.989,2.051 31.955 C 2.176 31.913,2.171 31.856,2.033 31.771 C 1.923 31.703,1.833 31.731,1.833 31.833 M4.667 32.003 C 4.889 32.148,4.889 32.187,4.667 32.349 C 4.454 32.504,4.459 32.518,4.703 32.440 C 4.860 32.389,5.030 32.413,5.079 32.493 C 5.128 32.573,5.081 32.667,4.975 32.703 C 4.845 32.746,4.883 32.888,5.089 33.128 C 5.320 33.398,5.452 33.443,5.615 33.307 C 5.877 33.090,5.910 32.767,5.654 32.924 C 5.556 32.985,5.571 32.883,5.688 32.695 C 5.805 32.508,5.972 32.399,6.059 32.453 C 6.150 32.509,6.163 32.462,6.090 32.345 C 6.020 32.231,5.820 32.175,5.645 32.221 C 5.470 32.266,5.222 32.198,5.092 32.068 C 4.963 31.939,4.758 31.834,4.637 31.836 C 4.474 31.838,4.482 31.881,4.667 32.003 M0.833 34.657 C 0.833 34.754,0.646 34.833,0.417 34.833 C 0.188 34.833,0.000 34.908,0.000 35.000 C 0.000 35.092,0.155 35.167,0.345 35.167 C 0.761 35.167,1.246 34.736,1.001 34.584 C 0.909 34.527,0.833 34.560,0.833 34.657 M1.742 35.230 C 1.451 35.442,1.324 35.481,1.415 35.330 C 1.544 35.117,1.525 35.115,1.278 35.315 C 1.121 35.443,1.031 35.586,1.078 35.633 C 1.125 35.681,1.073 35.839,0.962 35.985 C 0.852 36.131,0.827 36.194,0.907 36.126 C 1.067 35.991,1.537 36.306,1.431 36.477 C 1.395 36.536,1.651 36.600,2.000 36.621 C 2.442 36.647,2.664 36.581,2.733 36.402 C 2.787 36.261,2.907 36.193,3.000 36.250 C 3.239 36.397,2.806 35.477,2.484 35.153 C 2.239 34.906,2.179 34.912,1.742 35.230 M398.407 36.447 C 398.525 36.683,398.231 36.906,398.094 36.684 C 397.909 36.385,397.279 36.663,396.833 37.240 C 396.685 37.433,396.668 37.513,396.792 37.439 C 396.921 37.361,397.000 37.408,397.000 37.562 C 397.000 37.698,397.118 37.927,397.262 38.071 C 397.557 38.366,398.333 38.428,398.333 38.157 C 398.333 38.060,398.408 38.027,398.500 38.083 C 398.592 38.140,398.750 38.135,398.851 38.072 C 398.980 37.993,398.967 37.915,398.809 37.815 C 398.643 37.710,398.638 37.671,398.792 37.669 C 399.116 37.665,399.037 37.079,398.654 36.643 C 398.464 36.427,398.352 36.339,398.407 36.447 M397.472 94.878 C 396.829 95.133,396.558 95.705,396.870 96.150 C 397.004 96.342,397.163 96.448,397.223 96.388 C 397.284 96.327,397.333 96.353,397.333 96.445 C 397.333 96.759,398.080 96.919,399.083 96.820 C 399.633 96.767,399.877 96.710,399.625 96.695 C 399.373 96.679,399.166 96.573,399.164 96.458 C 399.162 96.302,399.126 96.306,399.021 96.472 C 398.906 96.653,398.861 96.647,398.783 96.441 C 398.729 96.302,398.747 96.165,398.822 96.136 C 399.238 95.977,399.181 95.043,398.761 95.124 C 398.471 95.179,398.305 95.120,398.234 94.936 C 398.118 94.634,398.093 94.632,397.472 94.878 M1.757 96.489 C 1.694 96.590,1.569 96.626,1.477 96.569 C 1.386 96.513,1.270 96.624,1.219 96.817 C 1.169 97.009,1.064 97.167,0.986 97.167 C 0.806 97.167,0.996 97.680,1.284 97.972 C 1.404 98.094,1.460 98.263,1.408 98.347 C 1.295 98.530,1.817 98.469,2.151 98.261 C 2.318 98.157,2.348 98.175,2.256 98.324 C 2.154 98.488,2.203 98.493,2.480 98.344 C 2.674 98.240,2.833 98.041,2.833 97.901 C 2.833 97.761,2.900 97.688,2.981 97.738 C 3.263 97.913,3.301 97.164,3.026 96.840 C 2.693 96.447,1.915 96.232,1.757 96.489 M395.723 98.042 C 395.415 98.181,395.197 98.535,395.106 99.042 C 395.093 99.110,395.026 99.165,394.955 99.163 C 394.885 99.161,394.712 99.255,394.572 99.371 C 393.920 99.914,393.667 100.259,393.667 100.605 C 393.667 100.811,393.584 101.032,393.482 101.094 C 393.354 101.174,393.366 101.252,393.524 101.352 C 393.700 101.463,393.686 101.495,393.458 101.497 C 393.298 101.499,393.167 101.425,393.167 101.333 C 393.167 101.242,393.084 101.167,392.982 101.167 C 392.881 101.167,392.840 101.277,392.892 101.411 C 392.943 101.546,392.920 101.696,392.840 101.746 C 392.760 101.795,392.665 101.745,392.628 101.634 C 392.587 101.510,392.519 101.544,392.449 101.725 C 392.376 101.915,392.401 101.978,392.520 101.904 C 392.644 101.827,392.663 101.917,392.577 102.186 C 392.465 102.540,392.480 102.557,392.730 102.350 C 392.967 102.154,392.995 102.154,392.922 102.351 C 392.794 102.699,393.126 103.146,393.305 102.869 C 393.410 102.706,393.556 102.696,393.903 102.828 C 394.155 102.924,394.424 102.964,394.500 102.917 C 394.576 102.870,394.672 102.925,394.713 103.041 C 394.756 103.162,394.850 103.188,394.936 103.102 C 395.021 103.016,394.993 102.922,394.868 102.878 C 394.710 102.821,394.701 102.743,394.834 102.582 C 394.967 102.422,394.962 102.329,394.816 102.239 C 394.696 102.165,394.659 102.185,394.722 102.289 C 394.881 102.545,394.465 102.810,394.109 102.680 C 393.829 102.578,393.826 102.547,394.067 102.347 C 394.214 102.225,394.334 101.966,394.336 101.771 C 394.338 101.501,394.374 101.472,394.486 101.649 C 394.567 101.777,394.748 101.838,394.889 101.784 C 395.030 101.730,395.182 101.775,395.226 101.884 C 395.271 101.996,395.313 101.959,395.320 101.802 C 395.327 101.646,395.407 101.474,395.498 101.418 C 395.592 101.360,395.621 101.425,395.566 101.568 C 395.494 101.757,395.562 101.802,395.841 101.749 C 396.360 101.649,396.458 101.505,396.162 101.278 C 396.022 101.171,395.919 100.990,395.933 100.875 C 395.947 100.760,395.968 100.554,395.979 100.417 C 395.991 100.279,396.079 100.167,396.177 100.167 C 396.274 100.167,396.299 100.253,396.234 100.359 C 396.163 100.474,396.188 100.506,396.296 100.440 C 396.396 100.378,396.526 100.408,396.587 100.505 C 396.663 100.629,396.765 100.626,396.924 100.494 C 397.050 100.390,397.222 100.348,397.309 100.401 C 397.395 100.455,397.508 100.386,397.561 100.249 C 397.622 100.088,397.554 99.998,397.370 99.995 C 397.113 99.990,397.111 99.974,397.350 99.834 C 397.634 99.668,397.581 98.855,397.250 98.307 C 397.045 97.968,396.209 97.822,395.723 98.042 M0.000 98.398 C 0.000 98.433,0.221 98.495,0.491 98.534 C 0.761 98.574,0.944 98.545,0.898 98.470 C 0.815 98.336,0.000 98.271,0.000 98.398 M398.090 98.822 C 398.038 98.907,398.066 99.021,398.152 99.075 C 398.239 99.128,398.362 99.088,398.426 98.985 C 398.508 98.852,398.581 98.862,398.678 99.019 C 398.754 99.141,398.873 99.182,398.944 99.111 C 399.084 98.971,398.707 98.673,398.385 98.669 C 398.276 98.668,398.143 98.736,398.090 98.822 M6.375 101.037 C 6.169 101.136,6.000 101.319,6.000 101.442 C 6.000 101.566,5.925 101.667,5.833 101.667 C 5.742 101.667,5.667 101.746,5.667 101.843 C 5.667 101.940,5.749 101.969,5.850 101.906 C 5.976 101.828,5.988 101.890,5.887 102.105 C 5.609 102.700,5.718 103.083,6.167 103.083 C 6.396 103.083,6.638 103.158,6.706 103.250 C 6.782 103.354,6.829 103.340,6.831 103.214 C 6.832 103.092,6.950 103.052,7.125 103.115 C 7.285 103.173,7.368 103.166,7.309 103.100 C 7.250 103.034,7.374 102.794,7.584 102.567 C 8.037 102.078,7.971 101.632,7.374 101.163 C 6.900 100.790,6.889 100.789,6.375 101.037 M2.369 101.728 C 2.579 101.945,2.781 102.095,2.818 102.062 C 2.915 101.977,2.312 101.333,2.135 101.333 C 2.054 101.333,2.160 101.511,2.369 101.728 M393.731 103.407 C 393.680 103.539,393.668 103.783,393.704 103.949 C 393.745 104.137,393.802 104.047,393.856 103.708 C 393.946 103.141,393.887 102.998,393.731 103.407 " stroke="none" fill="#6984ac" fill-rule="evenodd"></path><path id="path3" d="M37.752 0.996 C 37.692 1.094,37.704 1.154,37.779 1.129 C 37.923 1.081,38.000 1.213,38.000 1.510 C 38.000 1.607,37.926 1.641,37.835 1.585 C 37.743 1.528,37.711 1.589,37.763 1.724 C 37.876 2.018,38.634 2.188,38.780 1.952 C 38.840 1.855,38.803 1.833,38.692 1.901 C 38.587 1.966,38.500 1.946,38.500 1.857 C 38.500 1.768,38.594 1.657,38.708 1.610 C 38.838 1.558,38.812 1.521,38.639 1.513 C 38.486 1.506,38.317 1.594,38.262 1.708 C 38.208 1.823,38.194 1.751,38.231 1.548 C 38.308 1.131,37.935 0.701,37.752 0.996 M361.889 1.042 C 361.817 1.156,361.773 1.400,361.792 1.583 C 361.810 1.767,361.783 1.823,361.732 1.708 C 361.681 1.594,361.514 1.506,361.361 1.513 C 361.188 1.521,361.162 1.558,361.292 1.610 C 361.406 1.657,361.500 1.768,361.500 1.857 C 361.500 1.946,361.413 1.966,361.308 1.901 C 361.197 1.833,361.160 1.855,361.220 1.952 C 361.366 2.188,362.124 2.018,362.237 1.724 C 362.289 1.589,362.257 1.528,362.165 1.585 C 362.074 1.641,362.000 1.607,362.000 1.510 C 362.000 1.213,362.077 1.081,362.221 1.129 C 362.296 1.154,362.311 1.098,362.253 1.004 C 362.115 0.782,362.048 0.789,361.889 1.042 M37.366 2.258 C 37.111 2.548,37.240 2.833,37.627 2.833 C 37.829 2.833,37.851 2.785,37.713 2.646 C 37.610 2.544,37.566 2.356,37.614 2.230 C 37.727 1.937,37.641 1.947,37.366 2.258 M36.247 2.504 C 36.189 2.598,36.204 2.664,36.279 2.651 C 36.601 2.595,36.649 2.690,36.500 3.083 C 36.316 3.566,36.646 3.676,37.000 3.250 C 37.125 3.099,37.139 3.000,37.034 3.000 C 36.939 3.000,36.819 3.094,36.768 3.208 C 36.717 3.323,36.682 3.267,36.690 3.083 C 36.723 2.343,36.515 2.071,36.247 2.504 M35.593 4.255 C 35.415 4.390,35.340 4.500,35.426 4.501 C 35.513 4.502,35.358 4.651,35.083 4.832 C 34.620 5.137,34.417 5.500,34.708 5.500 C 34.777 5.500,34.955 5.500,35.104 5.500 C 35.292 5.500,35.327 5.437,35.219 5.292 C 35.067 5.087,35.556 4.455,35.919 4.387 C 36.117 4.351,36.243 3.998,36.056 4.005 C 35.979 4.008,35.771 4.121,35.593 4.255 M34.611 7.111 C 34.550 7.172,34.509 7.528,34.521 7.903 L 34.542 8.583 34.666 7.833 C 34.798 7.040,34.790 6.932,34.611 7.111 M5.440 29.116 C 5.381 29.174,5.333 29.354,5.333 29.516 C 5.333 29.677,5.202 29.843,5.042 29.885 C 4.772 29.956,4.773 29.963,5.052 29.981 C 5.217 29.991,5.307 30.075,5.250 30.167 C 5.193 30.258,5.226 30.333,5.323 30.333 C 5.421 30.333,5.500 30.258,5.500 30.167 C 5.500 30.075,5.617 30.000,5.760 30.000 C 5.903 30.000,5.973 29.924,5.915 29.831 C 5.857 29.737,5.740 29.704,5.655 29.757 C 5.440 29.890,5.460 29.607,5.681 29.385 C 5.791 29.275,5.801 29.166,5.704 29.107 C 5.618 29.053,5.499 29.057,5.440 29.116 M4.250 31.000 C 4.339 31.279,4.315 31.342,4.159 31.245 C 4.021 31.160,3.990 31.183,4.069 31.310 C 4.135 31.418,4.260 31.462,4.345 31.410 C 4.558 31.278,4.540 30.878,4.315 30.739 C 4.190 30.661,4.169 30.744,4.250 31.000 M0.910 31.677 C 0.799 31.856,1.087 32.158,1.375 32.164 C 1.580 32.168,1.517 31.888,1.265 31.679 C 1.087 31.531,1.001 31.531,0.910 31.677 M0.327 98.622 C 0.552 98.664,0.838 98.823,0.961 98.975 C 1.156 99.214,1.161 99.201,1.003 98.875 C 0.876 98.612,0.687 98.507,0.369 98.523 C -0.072 98.545,-0.073 98.547,0.327 98.622 M398.570 99.276 C 398.623 99.414,398.667 99.559,398.667 99.597 C 398.667 99.635,398.746 99.667,398.843 99.667 C 398.940 99.667,398.977 99.598,398.925 99.514 C 398.874 99.430,398.924 99.331,399.036 99.293 C 399.149 99.256,399.069 99.180,398.858 99.125 C 398.561 99.047,398.496 99.082,398.570 99.276 M1.215 100.333 C 1.167 100.517,1.062 100.667,0.981 100.667 C 0.900 100.667,0.833 100.746,0.833 100.843 C 0.833 100.940,0.912 100.971,1.007 100.912 C 1.103 100.853,1.309 100.905,1.466 101.027 C 1.711 101.219,1.725 101.216,1.564 101.000 C 1.462 100.862,1.394 100.581,1.412 100.375 C 1.452 99.910,1.332 99.885,1.215 100.333 M1.715 101.300 C 1.569 101.393,1.599 101.482,1.826 101.623 C 2.074 101.778,2.181 101.767,2.343 101.572 C 2.513 101.367,2.497 101.345,2.246 101.441 C 2.039 101.521,1.983 101.496,2.066 101.362 C 2.202 101.141,2.017 101.108,1.715 101.300 M2.460 101.928 C 2.392 101.997,2.414 102.147,2.510 102.261 C 2.630 102.406,2.629 102.504,2.508 102.578 C 2.412 102.638,2.333 102.768,2.333 102.869 C 2.333 102.969,2.483 102.878,2.667 102.667 C 2.850 102.455,2.999 102.200,2.997 102.099 C 2.996 101.999,2.929 102.021,2.848 102.149 C 2.728 102.339,2.690 102.328,2.642 102.093 C 2.610 101.934,2.528 101.860,2.460 101.928 M3.139 102.701 C 3.262 102.857,3.314 103.064,3.255 103.159 C 3.195 103.255,3.226 103.333,3.323 103.333 C 3.421 103.333,3.500 103.302,3.500 103.264 C 3.500 103.225,3.549 103.057,3.610 102.889 C 3.670 102.721,3.658 102.639,3.584 102.707 C 3.509 102.775,3.328 102.737,3.182 102.624 C 2.949 102.442,2.944 102.451,3.139 102.701 M394.961 103.037 C 395.015 103.241,395.089 103.316,395.127 103.203 C 395.164 103.090,395.264 103.040,395.348 103.092 C 395.431 103.144,395.500 103.115,395.500 103.028 C 395.500 102.897,395.129 102.667,394.919 102.667 C 394.889 102.667,394.908 102.833,394.961 103.037 M5.192 103.206 C 5.344 103.329,5.502 103.614,5.544 103.840 C 5.619 104.240,5.622 104.239,5.644 103.798 C 5.660 103.480,5.555 103.291,5.292 103.163 C 4.966 103.005,4.953 103.011,5.192 103.206 M394.437 103.256 C 394.380 103.405,394.341 103.690,394.350 103.889 C 394.361 104.117,394.418 104.036,394.504 103.668 C 394.650 103.048,394.610 102.806,394.437 103.256 " stroke="none" fill="#688cc0" fill-rule="evenodd"></path><path id="path4" d="M37.752 0.996 C 37.692 1.094,37.704 1.154,37.779 1.129 C 37.923 1.081,38.000 1.213,38.000 1.510 C 38.000 1.607,37.926 1.641,37.835 1.585 C 37.743 1.528,37.711 1.589,37.763 1.724 C 37.876 2.018,38.634 2.188,38.780 1.952 C 38.840 1.855,38.803 1.833,38.692 1.901 C 38.587 1.966,38.500 1.946,38.500 1.857 C 38.500 1.768,38.594 1.657,38.708 1.610 C 38.838 1.558,38.812 1.521,38.639 1.513 C 38.486 1.506,38.317 1.594,38.262 1.708 C 38.208 1.823,38.194 1.751,38.231 1.548 C 38.308 1.131,37.935 0.701,37.752 0.996 M361.889 1.042 C 361.817 1.156,361.773 1.400,361.792 1.583 C 361.810 1.767,361.783 1.823,361.732 1.708 C 361.681 1.594,361.514 1.506,361.361 1.513 C 361.188 1.521,361.162 1.558,361.292 1.610 C 361.406 1.657,361.500 1.768,361.500 1.857 C 361.500 1.946,361.413 1.966,361.308 1.901 C 361.197 1.833,361.160 1.855,361.220 1.952 C 361.366 2.188,362.124 2.018,362.237 1.724 C 362.289 1.589,362.257 1.528,362.165 1.585 C 362.074 1.641,362.000 1.607,362.000 1.510 C 362.000 1.213,362.077 1.081,362.221 1.129 C 362.296 1.154,362.311 1.098,362.253 1.004 C 362.115 0.782,362.048 0.789,361.889 1.042 M37.366 2.258 C 37.111 2.548,37.240 2.833,37.627 2.833 C 37.829 2.833,37.851 2.785,37.713 2.646 C 37.610 2.544,37.566 2.356,37.614 2.230 C 37.727 1.937,37.641 1.947,37.366 2.258 M36.247 2.504 C 36.189 2.598,36.204 2.664,36.279 2.651 C 36.601 2.595,36.649 2.690,36.500 3.083 C 36.316 3.566,36.646 3.676,37.000 3.250 C 37.125 3.099,37.139 3.000,37.034 3.000 C 36.939 3.000,36.819 3.094,36.768 3.208 C 36.717 3.323,36.682 3.267,36.690 3.083 C 36.723 2.343,36.515 2.071,36.247 2.504 M35.593 4.255 C 35.415 4.390,35.340 4.500,35.426 4.501 C 35.513 4.502,35.358 4.651,35.083 4.832 C 34.620 5.137,34.417 5.500,34.708 5.500 C 34.777 5.500,34.955 5.500,35.104 5.500 C 35.292 5.500,35.327 5.437,35.219 5.292 C 35.067 5.087,35.556 4.455,35.919 4.387 C 36.117 4.351,36.243 3.998,36.056 4.005 C 35.979 4.008,35.771 4.121,35.593 4.255 M34.611 7.111 C 34.550 7.172,34.509 7.528,34.521 7.903 L 34.542 8.583 34.666 7.833 C 34.798 7.040,34.790 6.932,34.611 7.111 M5.440 29.116 C 5.381 29.174,5.333 29.354,5.333 29.516 C 5.333 29.677,5.202 29.843,5.042 29.885 C 4.772 29.956,4.773 29.963,5.052 29.981 C 5.217 29.991,5.307 30.075,5.250 30.167 C 5.193 30.258,5.226 30.333,5.323 30.333 C 5.421 30.333,5.500 30.258,5.500 30.167 C 5.500 30.075,5.617 30.000,5.760 30.000 C 5.903 30.000,5.973 29.924,5.915 29.831 C 5.857 29.737,5.740 29.704,5.655 29.757 C 5.440 29.890,5.460 29.607,5.681 29.385 C 5.791 29.275,5.801 29.166,5.704 29.107 C 5.618 29.053,5.499 29.057,5.440 29.116 M4.250 31.000 C 4.339 31.279,4.315 31.342,4.159 31.245 C 4.021 31.160,3.990 31.183,4.069 31.310 C 4.135 31.418,4.260 31.462,4.345 31.410 C 4.558 31.278,4.540 30.878,4.315 30.739 C 4.190 30.661,4.169 30.744,4.250 31.000 M0.910 31.677 C 0.799 31.856,1.087 32.158,1.375 32.164 C 1.580 32.168,1.517 31.888,1.265 31.679 C 1.087 31.531,1.001 31.531,0.910 31.677 M0.327 98.622 C 0.552 98.664,0.838 98.823,0.961 98.975 C 1.156 99.214,1.161 99.201,1.003 98.875 C 0.876 98.612,0.687 98.507,0.369 98.523 C -0.072 98.545,-0.073 98.547,0.327 98.622 M398.570 99.276 C 398.623 99.414,398.667 99.559,398.667 99.597 C 398.667 99.635,398.746 99.667,398.843 99.667 C 398.940 99.667,398.977 99.598,398.925 99.514 C 398.874 99.430,398.924 99.331,399.036 99.293 C 399.149 99.256,399.069 99.180,398.858 99.125 C 398.561 99.047,398.496 99.082,398.570 99.276 M1.215 100.333 C 1.167 100.517,1.062 100.667,0.981 100.667 C 0.900 100.667,0.833 100.746,0.833 100.843 C 0.833 100.940,0.912 100.971,1.007 100.912 C 1.103 100.853,1.309 100.905,1.466 101.027 C 1.711 101.219,1.725 101.216,1.564 101.000 C 1.462 100.862,1.394 100.581,1.412 100.375 C 1.452 99.910,1.332 99.885,1.215 100.333 M1.715 101.300 C 1.569 101.393,1.599 101.482,1.826 101.623 C 2.074 101.778,2.181 101.767,2.343 101.572 C 2.513 101.367,2.497 101.345,2.246 101.441 C 2.039 101.521,1.983 101.496,2.066 101.362 C 2.202 101.141,2.017 101.108,1.715 101.300 M2.460 101.928 C 2.392 101.997,2.414 102.147,2.510 102.261 C 2.630 102.406,2.629 102.504,2.508 102.578 C 2.412 102.638,2.333 102.768,2.333 102.869 C 2.333 102.969,2.483 102.878,2.667 102.667 C 2.850 102.455,2.999 102.200,2.997 102.099 C 2.996 101.999,2.929 102.021,2.848 102.149 C 2.728 102.339,2.690 102.328,2.642 102.093 C 2.610 101.934,2.528 101.860,2.460 101.928 M3.139 102.701 C 3.262 102.857,3.314 103.064,3.255 103.159 C 3.195 103.255,3.226 103.333,3.323 103.333 C 3.421 103.333,3.500 103.302,3.500 103.264 C 3.500 103.225,3.549 103.057,3.610 102.889 C 3.670 102.721,3.658 102.639,3.584 102.707 C 3.509 102.775,3.328 102.737,3.182 102.624 C 2.949 102.442,2.944 102.451,3.139 102.701 M394.961 103.037 C 395.015 103.241,395.089 103.316,395.127 103.203 C 395.164 103.090,395.264 103.040,395.348 103.092 C 395.431 103.144,395.500 103.115,395.500 103.028 C 395.500 102.897,395.129 102.667,394.919 102.667 C 394.889 102.667,394.908 102.833,394.961 103.037 M5.192 103.206 C 5.344 103.329,5.502 103.614,5.544 103.840 C 5.619 104.240,5.622 104.239,5.644 103.798 C 5.660 103.480,5.555 103.291,5.292 103.163 C 4.966 103.005,4.953 103.011,5.192 103.206 M394.437 103.256 C 394.380 103.405,394.341 103.690,394.350 103.889 C 394.361 104.117,394.418 104.036,394.504 103.668 C 394.650 103.048,394.610 102.806,394.437 103.256 " stroke="none" fill="#688cc0" fill-rule="evenodd"></path></g></svg>